M48
; DRILL file {KiCad (5.1.5)-3} date 1/17/2021 6:04:25 PM
; FORMAT={-:-/ absolute / inch / decimal}
; #@! TF.CreationDate,2021-01-17T18:04:25-08:00
; #@! TF.GenerationSoftware,Kicad,Pcbnew,(5.1.5)-3
; #@! TF.FileFunction,Plated,1,2,PTH
FMAT,2
INCH
T1C0.0315
T2C0.0394
%
G90
G05
T1
X3.6614Y-4.0282
X3.6614Y-4.6282
X3.7614Y-4.0282
X3.7614Y-4.6282
X3.8614Y-4.0282
X3.8614Y-4.6282
X3.9614Y-4.0282
X3.9614Y-4.6282
X4.0614Y-4.0282
X4.0614Y-4.6282
X4.1614Y-4.0282
X4.1614Y-4.6282
X4.2614Y-4.0282
X4.2614Y-4.6282
X4.3614Y-4.0282
X4.3614Y-4.6282
X4.4614Y-4.0282
X4.4614Y-4.6282
X4.5614Y-4.0282
X4.5614Y-4.6282
X4.6614Y-4.0282
X4.6614Y-4.6282
X4.7614Y-4.0282
X4.7614Y-4.6282
X4.8614Y-4.0282
X4.8614Y-4.6282
X4.9614Y-4.0282
X4.9614Y-4.6282
X3.102Y-1.58
X3.102Y-1.88
X3.202Y-1.58
X3.202Y-1.88
X1.743Y-3.6122
X1.743Y-3.809
X3.5934Y-1.624
X3.5934Y-1.8209
X1.743Y-1.624
X1.743Y-1.8209
X4.9524Y-1.58
X4.9524Y-1.88
X5.0524Y-1.58
X5.0524Y-1.88
X3.6614Y-2.04
X3.6614Y-2.64
X3.7614Y-2.04
X3.7614Y-2.64
X3.8614Y-2.04
X3.8614Y-2.64
X3.9614Y-2.04
X3.9614Y-2.64
X4.0614Y-2.04
X4.0614Y-2.64
X4.1614Y-2.04
X4.1614Y-2.64
X4.2614Y-2.04
X4.2614Y-2.64
X4.3614Y-2.04
X4.3614Y-2.64
X4.4614Y-2.04
X4.4614Y-2.64
X4.5614Y-2.04
X4.5614Y-2.64
X4.6614Y-2.04
X4.6614Y-2.64
X4.7614Y-2.04
X4.7614Y-2.64
X4.8614Y-2.04
X4.8614Y-2.64
X4.9614Y-2.04
X4.9614Y-2.64
X3.102Y-3.5682
X3.102Y-3.8682
X3.202Y-3.5682
X3.202Y-3.8682
X4.9524Y-3.5682
X4.9524Y-3.8682
X5.0524Y-3.5682
X5.0524Y-3.8682
X3.5934Y-3.6122
X3.5934Y-3.809
X1.811Y-2.04
X1.811Y-2.64
X1.911Y-2.04
X1.911Y-2.64
X2.011Y-2.04
X2.011Y-2.64
X2.111Y-2.04
X2.111Y-2.64
X2.211Y-2.04
X2.211Y-2.64
X2.311Y-2.04
X2.311Y-2.64
X2.411Y-2.04
X2.411Y-2.64
X2.511Y-2.04
X2.511Y-2.64
X2.611Y-2.04
X2.611Y-2.64
X2.711Y-2.04
X2.711Y-2.64
X2.811Y-2.04
X2.811Y-2.64
X2.911Y-2.04
X2.911Y-2.64
X3.011Y-2.04
X3.011Y-2.64
X3.111Y-2.04
X3.111Y-2.64
X1.811Y-4.0282
X1.811Y-4.6282
X1.911Y-4.0282
X1.911Y-4.6282
X2.011Y-4.0282
X2.011Y-4.6282
X2.111Y-4.0282
X2.111Y-4.6282
X2.211Y-4.0282
X2.211Y-4.6282
X2.311Y-4.0282
X2.311Y-4.6282
X2.411Y-4.0282
X2.411Y-4.6282
X2.511Y-4.0282
X2.511Y-4.6282
X2.611Y-4.0282
X2.611Y-4.6282
X2.711Y-4.0282
X2.711Y-4.6282
X2.811Y-4.0282
X2.811Y-4.6282
X2.911Y-4.0282
X2.911Y-4.6282
X3.011Y-4.0282
X3.011Y-4.6282
X3.111Y-4.0282
X3.111Y-4.6282
T2
X1.762Y-1.322
X1.762Y-1.422
X1.862Y-1.322
X1.862Y-1.422
X1.962Y-1.322
X1.962Y-1.422
X2.062Y-1.322
X2.062Y-1.422
X2.162Y-1.322
X2.162Y-1.422
X2.262Y-1.322
X2.262Y-1.422
X2.362Y-1.322
X2.362Y-1.422
X2.462Y-1.322
X2.462Y-1.422
X2.562Y-1.322
X2.562Y-1.422
X2.662Y-1.322
X2.662Y-1.422
X2.762Y-1.322
X2.762Y-1.422
X2.862Y-1.322
X2.862Y-1.422
X2.962Y-1.322
X2.962Y-1.422
X3.062Y-1.322
X3.062Y-1.422
X3.162Y-1.322
X3.162Y-1.422
X3.6124Y-1.322
X3.6124Y-1.422
X3.7124Y-1.322
X3.7124Y-1.422
X3.8124Y-1.322
X3.8124Y-1.422
X3.9124Y-1.322
X3.9124Y-1.422
X4.0124Y-1.322
X4.0124Y-1.422
X4.1124Y-1.322
X4.1124Y-1.422
X4.2124Y-1.322
X4.2124Y-1.422
X4.3124Y-1.322
X4.3124Y-1.422
X4.4124Y-1.322
X4.4124Y-1.422
X4.5124Y-1.322
X4.5124Y-1.422
X4.6124Y-1.322
X4.6124Y-1.422
X4.7124Y-1.322
X4.7124Y-1.422
X4.8124Y-1.322
X4.8124Y-1.422
X4.9124Y-1.322
X4.9124Y-1.422
X5.0124Y-1.322
X5.0124Y-1.422
X1.762Y-3.3102
X1.762Y-3.4102
X1.862Y-3.3102
X1.862Y-3.4102
X1.962Y-3.3102
X1.962Y-3.4102
X2.062Y-3.3102
X2.062Y-3.4102
X2.162Y-3.3102
X2.162Y-3.4102
X2.262Y-3.3102
X2.262Y-3.4102
X2.362Y-3.3102
X2.362Y-3.4102
X2.462Y-3.3102
X2.462Y-3.4102
X2.562Y-3.3102
X2.562Y-3.4102
X2.662Y-3.3102
X2.662Y-3.4102
X2.762Y-3.3102
X2.762Y-3.4102
X2.862Y-3.3102
X2.862Y-3.4102
X2.962Y-3.3102
X2.962Y-3.4102
X3.062Y-3.3102
X3.062Y-3.4102
X3.162Y-3.3102
X3.162Y-3.4102
X3.6124Y-3.3102
X3.6124Y-3.4102
X3.7124Y-3.3102
X3.7124Y-3.4102
X3.8124Y-3.3102
X3.8124Y-3.4102
X3.9124Y-3.3102
X3.9124Y-3.4102
X4.0124Y-3.3102
X4.0124Y-3.4102
X4.1124Y-3.3102
X4.1124Y-3.4102
X4.2124Y-3.3102
X4.2124Y-3.4102
X4.3124Y-3.3102
X4.3124Y-3.4102
X4.4124Y-3.3102
X4.4124Y-3.4102
X4.5124Y-3.3102
X4.5124Y-3.4102
X4.6124Y-3.3102
X4.6124Y-3.4102
X4.7124Y-3.3102
X4.7124Y-3.4102
X4.8124Y-3.3102
X4.8124Y-3.4102
X4.9124Y-3.3102
X4.9124Y-3.4102
X5.0124Y-3.3102
X5.0124Y-3.4102
T0
M30
