M48
; DRILL file {KiCad (5.1.5)-3} date 1/17/2021 6:04:25 PM
; FORMAT={-:-/ absolute / inch / decimal}
; #@! TF.CreationDate,2021-01-17T18:04:25-08:00
; #@! TF.GenerationSoftware,Kicad,Pcbnew,(5.1.5)-3
; #@! TF.FileFunction,NonPlated,1,2,NPTH
FMAT,2
INCH
T1C0.0197
%
G90
G05
T1
X5.2069Y-2.3633
X5.2069Y-2.3928
X5.2069Y-2.4223
X5.2659Y-2.3633
X5.2659Y-2.3928
X5.2659Y-2.4223
X1.8855Y-2.7655
X1.8855Y-2.8245
X1.915Y-2.7655
X1.915Y-2.8245
X1.9445Y-2.7655
X1.9445Y-2.8245
X5.2069Y-3.3633
X5.2069Y-3.3928
X5.2069Y-3.4223
X5.2659Y-3.3633
X5.2659Y-3.3928
X5.2659Y-3.4223
X3.3565Y-3.3633
X3.3565Y-3.3928
X3.3565Y-3.4223
X3.4155Y-3.3633
X3.4155Y-3.3928
X3.4155Y-3.4223
X4.8185Y-2.7655
X4.8185Y-2.8245
X4.8481Y-2.7655
X4.8481Y-2.8245
X4.8776Y-2.7655
X4.8776Y-2.8245
X5.2069Y-4.3515
X5.2069Y-4.381
X5.2069Y-4.4105
X5.2659Y-4.3515
X5.2659Y-4.381
X5.2659Y-4.4105
X3.7359Y-2.7655
X3.7359Y-2.8245
X3.7654Y-2.7655
X3.7654Y-2.8245
X3.7949Y-2.7655
X3.7949Y-2.8245
X3.3565Y-2.3633
X3.3565Y-2.3928
X3.3565Y-2.4223
X3.4155Y-2.3633
X3.4155Y-2.3928
X3.4155Y-2.4223
X2.9681Y-2.7655
X2.9681Y-2.8245
X2.9977Y-2.7655
X2.9977Y-2.8245
X3.0272Y-2.7655
X3.0272Y-2.8245
X5.2069Y-1.3751
X5.2069Y-1.4046
X5.2069Y-1.4341
X5.2659Y-1.3751
X5.2659Y-1.4046
X5.2659Y-1.4341
X3.3565Y-1.3751
X3.3565Y-1.4046
X3.3565Y-1.4341
X3.4155Y-1.3751
X3.4155Y-1.4046
X3.4155Y-1.4341
X3.3565Y-4.3515
X3.3565Y-4.381
X3.3565Y-4.4105
X3.4155Y-4.3515
X3.4155Y-4.381
X3.4155Y-4.4105
T0
M30
