G04 #@! TF.GenerationSoftware,KiCad,Pcbnew,(5.1.5)-3*
G04 #@! TF.CreationDate,2021-01-17T18:04:29-08:00*
G04 #@! TF.ProjectId,YamahaMSX_MiniCartridge,59616d61-6861-44d5-9358-5f4d696e6943,rev?*
G04 #@! TF.SameCoordinates,Original*
G04 #@! TF.FileFunction,Profile,NP*
%FSLAX46Y46*%
G04 Gerber Fmt 4.6, Leading zero omitted, Abs format (unit mm)*
G04 Created by KiCad (PCBNEW (5.1.5)-3) date 2021-01-17 18:04:29*
%MOMM*%
%LPD*%
G04 APERTURE LIST*
%ADD10C,0.050000*%
G04 APERTURE END LIST*
D10*
X87000000Y-120500000D02*
X132000000Y-120500000D01*
X87000000Y-79000000D02*
X89000000Y-79000000D01*
X89000000Y-79000000D02*
X89000000Y-75000000D01*
X132004400Y-84177000D02*
X132000000Y-79000000D01*
X139905000Y-21500000D02*
X139905000Y-120500000D01*
X134000000Y-120500000D02*
X139905000Y-120500000D01*
X134000000Y-21500000D02*
X139905000Y-21500000D01*
X132004400Y-109277000D02*
X132004400Y-88177000D01*
X132000000Y-120500000D02*
X132004400Y-113277000D01*
X134004400Y-84177000D02*
X134000000Y-79000000D01*
X134004400Y-84177000D02*
G75*
G02X132004400Y-84177000I-1000000J0D01*
G01*
X134004400Y-109277000D02*
X134004400Y-88177000D01*
X134004400Y-109277000D02*
G75*
G02X132004400Y-109277000I-1000000J0D01*
G01*
X134000000Y-120500000D02*
X134004400Y-113277000D01*
X132004400Y-88177000D02*
G75*
G02X134004400Y-88177000I1000000J0D01*
G01*
X132004400Y-113277000D02*
G75*
G02X134004400Y-113277000I1000000J0D01*
G01*
X134000000Y-79000000D02*
X134004400Y-62777000D01*
X132000000Y-70000000D02*
X132004400Y-62777000D01*
X134004400Y-33677000D02*
X134000000Y-21500000D01*
X132004400Y-62777000D02*
G75*
G02X134004400Y-62777000I1000000J0D01*
G01*
X132004400Y-33677000D02*
X132000000Y-28500000D01*
X134004400Y-58777000D02*
X134004400Y-37677000D01*
X132004400Y-58777000D02*
X132004400Y-37677000D01*
X134004400Y-58777000D02*
G75*
G02X132004400Y-58777000I-1000000J0D01*
G01*
X132004400Y-37677000D02*
G75*
G02X134004400Y-37677000I1000000J0D01*
G01*
X134004400Y-33677000D02*
G75*
G02X132004400Y-33677000I-1000000J0D01*
G01*
X87004400Y-109277000D02*
X87004400Y-88177000D01*
X85004400Y-109277000D02*
X85004400Y-88177000D01*
X87004400Y-84177000D02*
X87000000Y-79000000D01*
X85004400Y-84177000D02*
X85000000Y-79000000D01*
X87004400Y-58777000D02*
X87004400Y-37677000D01*
X85004400Y-58777000D02*
X85004400Y-37677000D01*
X85004400Y-33677000D02*
X85000000Y-28500000D01*
X87004400Y-33677000D02*
X87000000Y-28500000D01*
X85004400Y-113277000D02*
G75*
G02X87004400Y-113277000I1000000J0D01*
G01*
X87004400Y-109277000D02*
G75*
G02X85004400Y-109277000I-1000000J0D01*
G01*
X85004400Y-88177000D02*
G75*
G02X87004400Y-88177000I1000000J0D01*
G01*
X87004400Y-84177000D02*
G75*
G02X85004400Y-84177000I-1000000J0D01*
G01*
X85004400Y-62777000D02*
G75*
G02X87004400Y-62777000I1000000J0D01*
G01*
X87004400Y-58777000D02*
G75*
G02X85004400Y-58777000I-1000000J0D01*
G01*
X85004400Y-37677000D02*
G75*
G02X87004400Y-37677000I1000000J0D01*
G01*
X87004400Y-33677000D02*
G75*
G02X85004400Y-33677000I-1000000J0D01*
G01*
X125141000Y-71993000D02*
X132000000Y-72000000D01*
X125141000Y-69993000D02*
X132000000Y-70000000D01*
X97641000Y-71993000D02*
X121141000Y-71993000D01*
X97641000Y-69993000D02*
X121141000Y-69993000D01*
X50641000Y-71993000D02*
X74141000Y-71993000D01*
X78141000Y-71993000D02*
X85000000Y-72000000D01*
X78141000Y-69993000D02*
X85000000Y-70000000D01*
X97641000Y-71993000D02*
G75*
G02X97641000Y-69993000I0J1000000D01*
G01*
X93641000Y-69993000D02*
G75*
G02X93641000Y-71993000I0J-1000000D01*
G01*
X125141000Y-71993000D02*
G75*
G02X125141000Y-69993000I0J1000000D01*
G01*
X121141000Y-69993000D02*
G75*
G02X121141000Y-71993000I0J-1000000D01*
G01*
X78141000Y-71993000D02*
G75*
G02X78141000Y-69993000I0J1000000D01*
G01*
X74141000Y-69993000D02*
G75*
G02X74141000Y-71993000I0J-1000000D01*
G01*
X50641000Y-69993000D02*
X74141000Y-69993000D01*
X50641000Y-71993000D02*
G75*
G02X50641000Y-69993000I0J1000000D01*
G01*
X46641000Y-69993000D02*
G75*
G02X46641000Y-71993000I0J-1000000D01*
G01*
X89000000Y-75000000D02*
X87000000Y-75000000D01*
X89000000Y-24500000D02*
X87000000Y-24500000D01*
X42000000Y-75000000D02*
X40000000Y-75000000D01*
X87000000Y-70000000D02*
X93641000Y-69993000D01*
X40000000Y-120500000D02*
X85000000Y-120500000D01*
X89000000Y-28500000D02*
X89000000Y-24500000D01*
X42000000Y-79000000D02*
X42000000Y-75000000D01*
X87000000Y-120500000D02*
X87004400Y-113277000D01*
X87000000Y-70000000D02*
X87004400Y-62777000D01*
X40000000Y-120500000D02*
X40000000Y-79000000D01*
X132000000Y-79000000D02*
X130000000Y-79000000D01*
X132000000Y-28500000D02*
X130000000Y-28500000D01*
X85000000Y-79000000D02*
X83000000Y-79000000D01*
X130000000Y-79000000D02*
X130000000Y-75000000D01*
X130000000Y-28500000D02*
X130000000Y-24500000D01*
X83000000Y-79000000D02*
X83000000Y-75000000D01*
X87000000Y-75000000D02*
X87000000Y-72000000D01*
X87000000Y-24500000D02*
X87000000Y-21500000D01*
X40000000Y-75000000D02*
X40000000Y-72000000D01*
X87000000Y-28500000D02*
X89000000Y-28500000D01*
X40000000Y-79000000D02*
X42000000Y-79000000D01*
X130000000Y-75000000D02*
X132000000Y-75000000D01*
X130000000Y-24500000D02*
X132000000Y-24500000D01*
X83000000Y-75000000D02*
X85000000Y-75000000D01*
X87000000Y-72000000D02*
X93641000Y-71993000D01*
X87000000Y-21500000D02*
X132000000Y-21500000D01*
X40000000Y-72000000D02*
X46641000Y-71993000D01*
X132000000Y-75000000D02*
X132000000Y-72000000D01*
X132000000Y-24500000D02*
X132000000Y-21500000D01*
X85000000Y-75000000D02*
X85000000Y-72000000D01*
X85000000Y-120500000D02*
X85004400Y-113277000D01*
X40000000Y-21500000D02*
X85000000Y-21500000D01*
X85000000Y-24500000D02*
X85000000Y-21500000D01*
X83000000Y-24500000D02*
X85000000Y-24500000D01*
X83000000Y-28500000D02*
X83000000Y-24500000D01*
X40000000Y-24500000D02*
X40000000Y-21500000D01*
X42000000Y-24500000D02*
X40000000Y-24500000D01*
X42000000Y-28500000D02*
X42000000Y-24500000D01*
X40000000Y-28500000D02*
X42000000Y-28500000D01*
X85000000Y-28500000D02*
X83000000Y-28500000D01*
X85000000Y-70000000D02*
X85004400Y-62777000D01*
X40000000Y-70000000D02*
X40000000Y-28500000D01*
X40000000Y-70000000D02*
X46641000Y-69993000D01*
M02*
