G04 #@! TF.GenerationSoftware,KiCad,Pcbnew,(5.1.5)-3*
G04 #@! TF.CreationDate,2021-01-17T18:04:29-08:00*
G04 #@! TF.ProjectId,YamahaMSX_MiniCartridge,59616d61-6861-44d5-9358-5f4d696e6943,rev?*
G04 #@! TF.SameCoordinates,Original*
G04 #@! TF.FileFunction,Copper,L1,Top*
G04 #@! TF.FilePolarity,Positive*
%FSLAX46Y46*%
G04 Gerber Fmt 4.6, Leading zero omitted, Abs format (unit mm)*
G04 Created by KiCad (PCBNEW (5.1.5)-3) date 2021-01-17 18:04:29*
%MOMM*%
%LPD*%
G04 APERTURE LIST*
%ADD10C,0.100000*%
%ADD11R,1.700000X1.700000*%
%ADD12O,1.700000X1.700000*%
%ADD13R,1.000000X1.500000*%
%ADD14R,1.600000X1.600000*%
%ADD15O,1.600000X1.600000*%
%ADD16C,1.600000*%
%ADD17C,0.300000*%
%ADD18C,1.000000*%
G04 APERTURE END LIST*
G04 #@! TA.AperFunction,SMDPad,CuDef*
D10*
G36*
X93210769Y-93365001D02*
G01*
X93234976Y-93368592D01*
X93258715Y-93374538D01*
X93281757Y-93382782D01*
X93303880Y-93393246D01*
X93324871Y-93405827D01*
X93344527Y-93420405D01*
X93362660Y-93436840D01*
X93379095Y-93454973D01*
X93393673Y-93474629D01*
X93406254Y-93495620D01*
X93416718Y-93517743D01*
X93424962Y-93540785D01*
X93430908Y-93564524D01*
X93434499Y-93588731D01*
X93435700Y-93613174D01*
X93435700Y-94864426D01*
X93434499Y-94888869D01*
X93430908Y-94913076D01*
X93424962Y-94936815D01*
X93416718Y-94959857D01*
X93406254Y-94981980D01*
X93393673Y-95002971D01*
X93379095Y-95022627D01*
X93362660Y-95040760D01*
X93344527Y-95057195D01*
X93324871Y-95071773D01*
X93303880Y-95084354D01*
X93281757Y-95094818D01*
X93258715Y-95103062D01*
X93234976Y-95109008D01*
X93210769Y-95112599D01*
X93186326Y-95113800D01*
X92260074Y-95113800D01*
X92235631Y-95112599D01*
X92211424Y-95109008D01*
X92187685Y-95103062D01*
X92164643Y-95094818D01*
X92142520Y-95084354D01*
X92121529Y-95071773D01*
X92101873Y-95057195D01*
X92083740Y-95040760D01*
X92067305Y-95022627D01*
X92052727Y-95002971D01*
X92040146Y-94981980D01*
X92029682Y-94959857D01*
X92021438Y-94936815D01*
X92015492Y-94913076D01*
X92011901Y-94888869D01*
X92010700Y-94864426D01*
X92010700Y-93613174D01*
X92011901Y-93588731D01*
X92015492Y-93564524D01*
X92021438Y-93540785D01*
X92029682Y-93517743D01*
X92040146Y-93495620D01*
X92052727Y-93474629D01*
X92067305Y-93454973D01*
X92083740Y-93436840D01*
X92101873Y-93420405D01*
X92121529Y-93405827D01*
X92142520Y-93393246D01*
X92164643Y-93382782D01*
X92187685Y-93374538D01*
X92211424Y-93368592D01*
X92235631Y-93365001D01*
X92260074Y-93363800D01*
X93186326Y-93363800D01*
X93210769Y-93365001D01*
G37*
G04 #@! TD.AperFunction*
G04 #@! TA.AperFunction,SMDPad,CuDef*
G36*
X90235769Y-93365001D02*
G01*
X90259976Y-93368592D01*
X90283715Y-93374538D01*
X90306757Y-93382782D01*
X90328880Y-93393246D01*
X90349871Y-93405827D01*
X90369527Y-93420405D01*
X90387660Y-93436840D01*
X90404095Y-93454973D01*
X90418673Y-93474629D01*
X90431254Y-93495620D01*
X90441718Y-93517743D01*
X90449962Y-93540785D01*
X90455908Y-93564524D01*
X90459499Y-93588731D01*
X90460700Y-93613174D01*
X90460700Y-94864426D01*
X90459499Y-94888869D01*
X90455908Y-94913076D01*
X90449962Y-94936815D01*
X90441718Y-94959857D01*
X90431254Y-94981980D01*
X90418673Y-95002971D01*
X90404095Y-95022627D01*
X90387660Y-95040760D01*
X90369527Y-95057195D01*
X90349871Y-95071773D01*
X90328880Y-95084354D01*
X90306757Y-95094818D01*
X90283715Y-95103062D01*
X90259976Y-95109008D01*
X90235769Y-95112599D01*
X90211326Y-95113800D01*
X89285074Y-95113800D01*
X89260631Y-95112599D01*
X89236424Y-95109008D01*
X89212685Y-95103062D01*
X89189643Y-95094818D01*
X89167520Y-95084354D01*
X89146529Y-95071773D01*
X89126873Y-95057195D01*
X89108740Y-95040760D01*
X89092305Y-95022627D01*
X89077727Y-95002971D01*
X89065146Y-94981980D01*
X89054682Y-94959857D01*
X89046438Y-94936815D01*
X89040492Y-94913076D01*
X89036901Y-94888869D01*
X89035700Y-94864426D01*
X89035700Y-93613174D01*
X89036901Y-93588731D01*
X89040492Y-93564524D01*
X89046438Y-93540785D01*
X89054682Y-93517743D01*
X89065146Y-93495620D01*
X89077727Y-93474629D01*
X89092305Y-93454973D01*
X89108740Y-93436840D01*
X89126873Y-93420405D01*
X89146529Y-93405827D01*
X89167520Y-93393246D01*
X89189643Y-93382782D01*
X89212685Y-93374538D01*
X89236424Y-93368592D01*
X89260631Y-93365001D01*
X89285074Y-93363800D01*
X90211326Y-93363800D01*
X90235769Y-93365001D01*
G37*
G04 #@! TD.AperFunction*
G04 #@! TA.AperFunction,SMDPad,CuDef*
G36*
X46210769Y-93365001D02*
G01*
X46234976Y-93368592D01*
X46258715Y-93374538D01*
X46281757Y-93382782D01*
X46303880Y-93393246D01*
X46324871Y-93405827D01*
X46344527Y-93420405D01*
X46362660Y-93436840D01*
X46379095Y-93454973D01*
X46393673Y-93474629D01*
X46406254Y-93495620D01*
X46416718Y-93517743D01*
X46424962Y-93540785D01*
X46430908Y-93564524D01*
X46434499Y-93588731D01*
X46435700Y-93613174D01*
X46435700Y-94864426D01*
X46434499Y-94888869D01*
X46430908Y-94913076D01*
X46424962Y-94936815D01*
X46416718Y-94959857D01*
X46406254Y-94981980D01*
X46393673Y-95002971D01*
X46379095Y-95022627D01*
X46362660Y-95040760D01*
X46344527Y-95057195D01*
X46324871Y-95071773D01*
X46303880Y-95084354D01*
X46281757Y-95094818D01*
X46258715Y-95103062D01*
X46234976Y-95109008D01*
X46210769Y-95112599D01*
X46186326Y-95113800D01*
X45260074Y-95113800D01*
X45235631Y-95112599D01*
X45211424Y-95109008D01*
X45187685Y-95103062D01*
X45164643Y-95094818D01*
X45142520Y-95084354D01*
X45121529Y-95071773D01*
X45101873Y-95057195D01*
X45083740Y-95040760D01*
X45067305Y-95022627D01*
X45052727Y-95002971D01*
X45040146Y-94981980D01*
X45029682Y-94959857D01*
X45021438Y-94936815D01*
X45015492Y-94913076D01*
X45011901Y-94888869D01*
X45010700Y-94864426D01*
X45010700Y-93613174D01*
X45011901Y-93588731D01*
X45015492Y-93564524D01*
X45021438Y-93540785D01*
X45029682Y-93517743D01*
X45040146Y-93495620D01*
X45052727Y-93474629D01*
X45067305Y-93454973D01*
X45083740Y-93436840D01*
X45101873Y-93420405D01*
X45121529Y-93405827D01*
X45142520Y-93393246D01*
X45164643Y-93382782D01*
X45187685Y-93374538D01*
X45211424Y-93368592D01*
X45235631Y-93365001D01*
X45260074Y-93363800D01*
X46186326Y-93363800D01*
X46210769Y-93365001D01*
G37*
G04 #@! TD.AperFunction*
G04 #@! TA.AperFunction,SMDPad,CuDef*
G36*
X43235769Y-93365001D02*
G01*
X43259976Y-93368592D01*
X43283715Y-93374538D01*
X43306757Y-93382782D01*
X43328880Y-93393246D01*
X43349871Y-93405827D01*
X43369527Y-93420405D01*
X43387660Y-93436840D01*
X43404095Y-93454973D01*
X43418673Y-93474629D01*
X43431254Y-93495620D01*
X43441718Y-93517743D01*
X43449962Y-93540785D01*
X43455908Y-93564524D01*
X43459499Y-93588731D01*
X43460700Y-93613174D01*
X43460700Y-94864426D01*
X43459499Y-94888869D01*
X43455908Y-94913076D01*
X43449962Y-94936815D01*
X43441718Y-94959857D01*
X43431254Y-94981980D01*
X43418673Y-95002971D01*
X43404095Y-95022627D01*
X43387660Y-95040760D01*
X43369527Y-95057195D01*
X43349871Y-95071773D01*
X43328880Y-95084354D01*
X43306757Y-95094818D01*
X43283715Y-95103062D01*
X43259976Y-95109008D01*
X43235769Y-95112599D01*
X43211326Y-95113800D01*
X42285074Y-95113800D01*
X42260631Y-95112599D01*
X42236424Y-95109008D01*
X42212685Y-95103062D01*
X42189643Y-95094818D01*
X42167520Y-95084354D01*
X42146529Y-95071773D01*
X42126873Y-95057195D01*
X42108740Y-95040760D01*
X42092305Y-95022627D01*
X42077727Y-95002971D01*
X42065146Y-94981980D01*
X42054682Y-94959857D01*
X42046438Y-94936815D01*
X42040492Y-94913076D01*
X42036901Y-94888869D01*
X42035700Y-94864426D01*
X42035700Y-93613174D01*
X42036901Y-93588731D01*
X42040492Y-93564524D01*
X42046438Y-93540785D01*
X42054682Y-93517743D01*
X42065146Y-93495620D01*
X42077727Y-93474629D01*
X42092305Y-93454973D01*
X42108740Y-93436840D01*
X42126873Y-93420405D01*
X42146529Y-93405827D01*
X42167520Y-93393246D01*
X42189643Y-93382782D01*
X42212685Y-93374538D01*
X42236424Y-93368592D01*
X42260631Y-93365001D01*
X42285074Y-93363800D01*
X43211326Y-93363800D01*
X43235769Y-93365001D01*
G37*
G04 #@! TD.AperFunction*
G04 #@! TA.AperFunction,SMDPad,CuDef*
G36*
X93210769Y-42865001D02*
G01*
X93234976Y-42868592D01*
X93258715Y-42874538D01*
X93281757Y-42882782D01*
X93303880Y-42893246D01*
X93324871Y-42905827D01*
X93344527Y-42920405D01*
X93362660Y-42936840D01*
X93379095Y-42954973D01*
X93393673Y-42974629D01*
X93406254Y-42995620D01*
X93416718Y-43017743D01*
X93424962Y-43040785D01*
X93430908Y-43064524D01*
X93434499Y-43088731D01*
X93435700Y-43113174D01*
X93435700Y-44364426D01*
X93434499Y-44388869D01*
X93430908Y-44413076D01*
X93424962Y-44436815D01*
X93416718Y-44459857D01*
X93406254Y-44481980D01*
X93393673Y-44502971D01*
X93379095Y-44522627D01*
X93362660Y-44540760D01*
X93344527Y-44557195D01*
X93324871Y-44571773D01*
X93303880Y-44584354D01*
X93281757Y-44594818D01*
X93258715Y-44603062D01*
X93234976Y-44609008D01*
X93210769Y-44612599D01*
X93186326Y-44613800D01*
X92260074Y-44613800D01*
X92235631Y-44612599D01*
X92211424Y-44609008D01*
X92187685Y-44603062D01*
X92164643Y-44594818D01*
X92142520Y-44584354D01*
X92121529Y-44571773D01*
X92101873Y-44557195D01*
X92083740Y-44540760D01*
X92067305Y-44522627D01*
X92052727Y-44502971D01*
X92040146Y-44481980D01*
X92029682Y-44459857D01*
X92021438Y-44436815D01*
X92015492Y-44413076D01*
X92011901Y-44388869D01*
X92010700Y-44364426D01*
X92010700Y-43113174D01*
X92011901Y-43088731D01*
X92015492Y-43064524D01*
X92021438Y-43040785D01*
X92029682Y-43017743D01*
X92040146Y-42995620D01*
X92052727Y-42974629D01*
X92067305Y-42954973D01*
X92083740Y-42936840D01*
X92101873Y-42920405D01*
X92121529Y-42905827D01*
X92142520Y-42893246D01*
X92164643Y-42882782D01*
X92187685Y-42874538D01*
X92211424Y-42868592D01*
X92235631Y-42865001D01*
X92260074Y-42863800D01*
X93186326Y-42863800D01*
X93210769Y-42865001D01*
G37*
G04 #@! TD.AperFunction*
G04 #@! TA.AperFunction,SMDPad,CuDef*
G36*
X90235769Y-42865001D02*
G01*
X90259976Y-42868592D01*
X90283715Y-42874538D01*
X90306757Y-42882782D01*
X90328880Y-42893246D01*
X90349871Y-42905827D01*
X90369527Y-42920405D01*
X90387660Y-42936840D01*
X90404095Y-42954973D01*
X90418673Y-42974629D01*
X90431254Y-42995620D01*
X90441718Y-43017743D01*
X90449962Y-43040785D01*
X90455908Y-43064524D01*
X90459499Y-43088731D01*
X90460700Y-43113174D01*
X90460700Y-44364426D01*
X90459499Y-44388869D01*
X90455908Y-44413076D01*
X90449962Y-44436815D01*
X90441718Y-44459857D01*
X90431254Y-44481980D01*
X90418673Y-44502971D01*
X90404095Y-44522627D01*
X90387660Y-44540760D01*
X90369527Y-44557195D01*
X90349871Y-44571773D01*
X90328880Y-44584354D01*
X90306757Y-44594818D01*
X90283715Y-44603062D01*
X90259976Y-44609008D01*
X90235769Y-44612599D01*
X90211326Y-44613800D01*
X89285074Y-44613800D01*
X89260631Y-44612599D01*
X89236424Y-44609008D01*
X89212685Y-44603062D01*
X89189643Y-44594818D01*
X89167520Y-44584354D01*
X89146529Y-44571773D01*
X89126873Y-44557195D01*
X89108740Y-44540760D01*
X89092305Y-44522627D01*
X89077727Y-44502971D01*
X89065146Y-44481980D01*
X89054682Y-44459857D01*
X89046438Y-44436815D01*
X89040492Y-44413076D01*
X89036901Y-44388869D01*
X89035700Y-44364426D01*
X89035700Y-43113174D01*
X89036901Y-43088731D01*
X89040492Y-43064524D01*
X89046438Y-43040785D01*
X89054682Y-43017743D01*
X89065146Y-42995620D01*
X89077727Y-42974629D01*
X89092305Y-42954973D01*
X89108740Y-42936840D01*
X89126873Y-42920405D01*
X89146529Y-42905827D01*
X89167520Y-42893246D01*
X89189643Y-42882782D01*
X89212685Y-42874538D01*
X89236424Y-42868592D01*
X89260631Y-42865001D01*
X89285074Y-42863800D01*
X90211326Y-42863800D01*
X90235769Y-42865001D01*
G37*
G04 #@! TD.AperFunction*
D11*
X127314800Y-86618800D03*
D12*
X127314800Y-84078800D03*
X124774800Y-86618800D03*
X124774800Y-84078800D03*
X122234800Y-86618800D03*
X122234800Y-84078800D03*
X119694800Y-86618800D03*
X119694800Y-84078800D03*
X117154800Y-86618800D03*
X117154800Y-84078800D03*
X114614800Y-86618800D03*
X114614800Y-84078800D03*
X112074800Y-86618800D03*
X112074800Y-84078800D03*
X109534800Y-86618800D03*
X109534800Y-84078800D03*
X106994800Y-86618800D03*
X106994800Y-84078800D03*
X104454800Y-86618800D03*
X104454800Y-84078800D03*
X101914800Y-86618800D03*
X101914800Y-84078800D03*
X99374800Y-86618800D03*
X99374800Y-84078800D03*
X96834800Y-86618800D03*
X96834800Y-84078800D03*
X94294800Y-86618800D03*
X94294800Y-84078800D03*
X91754800Y-86618800D03*
X91754800Y-84078800D03*
D11*
X80314800Y-86618800D03*
D12*
X80314800Y-84078800D03*
X77774800Y-86618800D03*
X77774800Y-84078800D03*
X75234800Y-86618800D03*
X75234800Y-84078800D03*
X72694800Y-86618800D03*
X72694800Y-84078800D03*
X70154800Y-86618800D03*
X70154800Y-84078800D03*
X67614800Y-86618800D03*
X67614800Y-84078800D03*
X65074800Y-86618800D03*
X65074800Y-84078800D03*
X62534800Y-86618800D03*
X62534800Y-84078800D03*
X59994800Y-86618800D03*
X59994800Y-84078800D03*
X57454800Y-86618800D03*
X57454800Y-84078800D03*
X54914800Y-86618800D03*
X54914800Y-84078800D03*
X52374800Y-86618800D03*
X52374800Y-84078800D03*
X49834800Y-86618800D03*
X49834800Y-84078800D03*
X47294800Y-86618800D03*
X47294800Y-84078800D03*
X44754800Y-86618800D03*
X44754800Y-84078800D03*
D11*
X127314800Y-36118800D03*
D12*
X127314800Y-33578800D03*
X124774800Y-36118800D03*
X124774800Y-33578800D03*
X122234800Y-36118800D03*
X122234800Y-33578800D03*
X119694800Y-36118800D03*
X119694800Y-33578800D03*
X117154800Y-36118800D03*
X117154800Y-33578800D03*
X114614800Y-36118800D03*
X114614800Y-33578800D03*
X112074800Y-36118800D03*
X112074800Y-33578800D03*
X109534800Y-36118800D03*
X109534800Y-33578800D03*
X106994800Y-36118800D03*
X106994800Y-33578800D03*
X104454800Y-36118800D03*
X104454800Y-33578800D03*
X101914800Y-36118800D03*
X101914800Y-33578800D03*
X99374800Y-36118800D03*
X99374800Y-33578800D03*
X96834800Y-36118800D03*
X96834800Y-33578800D03*
X94294800Y-36118800D03*
X94294800Y-33578800D03*
X91754800Y-36118800D03*
X91754800Y-33578800D03*
D13*
X97734200Y-98226600D03*
X99034200Y-98226600D03*
X50734200Y-98226600D03*
X52034200Y-98226600D03*
X97734200Y-47726600D03*
X99034200Y-47726600D03*
X110657000Y-96220000D03*
X109357000Y-96220000D03*
X108057000Y-96220000D03*
X63657000Y-96220000D03*
X62357000Y-96220000D03*
X61057000Y-96220000D03*
X110657000Y-45720000D03*
X109357000Y-45720000D03*
X108057000Y-45720000D03*
G04 #@! TA.AperFunction,SMDPad,CuDef*
D10*
G36*
X119357904Y-92831604D02*
G01*
X119382173Y-92835204D01*
X119405971Y-92841165D01*
X119429071Y-92849430D01*
X119451249Y-92859920D01*
X119472293Y-92872533D01*
X119491998Y-92887147D01*
X119510177Y-92903623D01*
X119526653Y-92921802D01*
X119541267Y-92941507D01*
X119553880Y-92962551D01*
X119564370Y-92984729D01*
X119572635Y-93007829D01*
X119578596Y-93031627D01*
X119582196Y-93055896D01*
X119583400Y-93080400D01*
X119583400Y-94330400D01*
X119582196Y-94354904D01*
X119578596Y-94379173D01*
X119572635Y-94402971D01*
X119564370Y-94426071D01*
X119553880Y-94448249D01*
X119541267Y-94469293D01*
X119526653Y-94488998D01*
X119510177Y-94507177D01*
X119491998Y-94523653D01*
X119472293Y-94538267D01*
X119451249Y-94550880D01*
X119429071Y-94561370D01*
X119405971Y-94569635D01*
X119382173Y-94575596D01*
X119357904Y-94579196D01*
X119333400Y-94580400D01*
X118408400Y-94580400D01*
X118383896Y-94579196D01*
X118359627Y-94575596D01*
X118335829Y-94569635D01*
X118312729Y-94561370D01*
X118290551Y-94550880D01*
X118269507Y-94538267D01*
X118249802Y-94523653D01*
X118231623Y-94507177D01*
X118215147Y-94488998D01*
X118200533Y-94469293D01*
X118187920Y-94448249D01*
X118177430Y-94426071D01*
X118169165Y-94402971D01*
X118163204Y-94379173D01*
X118159604Y-94354904D01*
X118158400Y-94330400D01*
X118158400Y-93080400D01*
X118159604Y-93055896D01*
X118163204Y-93031627D01*
X118169165Y-93007829D01*
X118177430Y-92984729D01*
X118187920Y-92962551D01*
X118200533Y-92941507D01*
X118215147Y-92921802D01*
X118231623Y-92903623D01*
X118249802Y-92887147D01*
X118269507Y-92872533D01*
X118290551Y-92859920D01*
X118312729Y-92849430D01*
X118335829Y-92841165D01*
X118359627Y-92835204D01*
X118383896Y-92831604D01*
X118408400Y-92830400D01*
X119333400Y-92830400D01*
X119357904Y-92831604D01*
G37*
G04 #@! TD.AperFunction*
G04 #@! TA.AperFunction,SMDPad,CuDef*
G36*
X116382904Y-92831604D02*
G01*
X116407173Y-92835204D01*
X116430971Y-92841165D01*
X116454071Y-92849430D01*
X116476249Y-92859920D01*
X116497293Y-92872533D01*
X116516998Y-92887147D01*
X116535177Y-92903623D01*
X116551653Y-92921802D01*
X116566267Y-92941507D01*
X116578880Y-92962551D01*
X116589370Y-92984729D01*
X116597635Y-93007829D01*
X116603596Y-93031627D01*
X116607196Y-93055896D01*
X116608400Y-93080400D01*
X116608400Y-94330400D01*
X116607196Y-94354904D01*
X116603596Y-94379173D01*
X116597635Y-94402971D01*
X116589370Y-94426071D01*
X116578880Y-94448249D01*
X116566267Y-94469293D01*
X116551653Y-94488998D01*
X116535177Y-94507177D01*
X116516998Y-94523653D01*
X116497293Y-94538267D01*
X116476249Y-94550880D01*
X116454071Y-94561370D01*
X116430971Y-94569635D01*
X116407173Y-94575596D01*
X116382904Y-94579196D01*
X116358400Y-94580400D01*
X115433400Y-94580400D01*
X115408896Y-94579196D01*
X115384627Y-94575596D01*
X115360829Y-94569635D01*
X115337729Y-94561370D01*
X115315551Y-94550880D01*
X115294507Y-94538267D01*
X115274802Y-94523653D01*
X115256623Y-94507177D01*
X115240147Y-94488998D01*
X115225533Y-94469293D01*
X115212920Y-94448249D01*
X115202430Y-94426071D01*
X115194165Y-94402971D01*
X115188204Y-94379173D01*
X115184604Y-94354904D01*
X115183400Y-94330400D01*
X115183400Y-93080400D01*
X115184604Y-93055896D01*
X115188204Y-93031627D01*
X115194165Y-93007829D01*
X115202430Y-92984729D01*
X115212920Y-92962551D01*
X115225533Y-92941507D01*
X115240147Y-92921802D01*
X115256623Y-92903623D01*
X115274802Y-92887147D01*
X115294507Y-92872533D01*
X115315551Y-92859920D01*
X115337729Y-92849430D01*
X115360829Y-92841165D01*
X115384627Y-92835204D01*
X115408896Y-92831604D01*
X115433400Y-92830400D01*
X116358400Y-92830400D01*
X116382904Y-92831604D01*
G37*
G04 #@! TD.AperFunction*
G04 #@! TA.AperFunction,SMDPad,CuDef*
G36*
X72357904Y-92831604D02*
G01*
X72382173Y-92835204D01*
X72405971Y-92841165D01*
X72429071Y-92849430D01*
X72451249Y-92859920D01*
X72472293Y-92872533D01*
X72491998Y-92887147D01*
X72510177Y-92903623D01*
X72526653Y-92921802D01*
X72541267Y-92941507D01*
X72553880Y-92962551D01*
X72564370Y-92984729D01*
X72572635Y-93007829D01*
X72578596Y-93031627D01*
X72582196Y-93055896D01*
X72583400Y-93080400D01*
X72583400Y-94330400D01*
X72582196Y-94354904D01*
X72578596Y-94379173D01*
X72572635Y-94402971D01*
X72564370Y-94426071D01*
X72553880Y-94448249D01*
X72541267Y-94469293D01*
X72526653Y-94488998D01*
X72510177Y-94507177D01*
X72491998Y-94523653D01*
X72472293Y-94538267D01*
X72451249Y-94550880D01*
X72429071Y-94561370D01*
X72405971Y-94569635D01*
X72382173Y-94575596D01*
X72357904Y-94579196D01*
X72333400Y-94580400D01*
X71408400Y-94580400D01*
X71383896Y-94579196D01*
X71359627Y-94575596D01*
X71335829Y-94569635D01*
X71312729Y-94561370D01*
X71290551Y-94550880D01*
X71269507Y-94538267D01*
X71249802Y-94523653D01*
X71231623Y-94507177D01*
X71215147Y-94488998D01*
X71200533Y-94469293D01*
X71187920Y-94448249D01*
X71177430Y-94426071D01*
X71169165Y-94402971D01*
X71163204Y-94379173D01*
X71159604Y-94354904D01*
X71158400Y-94330400D01*
X71158400Y-93080400D01*
X71159604Y-93055896D01*
X71163204Y-93031627D01*
X71169165Y-93007829D01*
X71177430Y-92984729D01*
X71187920Y-92962551D01*
X71200533Y-92941507D01*
X71215147Y-92921802D01*
X71231623Y-92903623D01*
X71249802Y-92887147D01*
X71269507Y-92872533D01*
X71290551Y-92859920D01*
X71312729Y-92849430D01*
X71335829Y-92841165D01*
X71359627Y-92835204D01*
X71383896Y-92831604D01*
X71408400Y-92830400D01*
X72333400Y-92830400D01*
X72357904Y-92831604D01*
G37*
G04 #@! TD.AperFunction*
G04 #@! TA.AperFunction,SMDPad,CuDef*
G36*
X69382904Y-92831604D02*
G01*
X69407173Y-92835204D01*
X69430971Y-92841165D01*
X69454071Y-92849430D01*
X69476249Y-92859920D01*
X69497293Y-92872533D01*
X69516998Y-92887147D01*
X69535177Y-92903623D01*
X69551653Y-92921802D01*
X69566267Y-92941507D01*
X69578880Y-92962551D01*
X69589370Y-92984729D01*
X69597635Y-93007829D01*
X69603596Y-93031627D01*
X69607196Y-93055896D01*
X69608400Y-93080400D01*
X69608400Y-94330400D01*
X69607196Y-94354904D01*
X69603596Y-94379173D01*
X69597635Y-94402971D01*
X69589370Y-94426071D01*
X69578880Y-94448249D01*
X69566267Y-94469293D01*
X69551653Y-94488998D01*
X69535177Y-94507177D01*
X69516998Y-94523653D01*
X69497293Y-94538267D01*
X69476249Y-94550880D01*
X69454071Y-94561370D01*
X69430971Y-94569635D01*
X69407173Y-94575596D01*
X69382904Y-94579196D01*
X69358400Y-94580400D01*
X68433400Y-94580400D01*
X68408896Y-94579196D01*
X68384627Y-94575596D01*
X68360829Y-94569635D01*
X68337729Y-94561370D01*
X68315551Y-94550880D01*
X68294507Y-94538267D01*
X68274802Y-94523653D01*
X68256623Y-94507177D01*
X68240147Y-94488998D01*
X68225533Y-94469293D01*
X68212920Y-94448249D01*
X68202430Y-94426071D01*
X68194165Y-94402971D01*
X68188204Y-94379173D01*
X68184604Y-94354904D01*
X68183400Y-94330400D01*
X68183400Y-93080400D01*
X68184604Y-93055896D01*
X68188204Y-93031627D01*
X68194165Y-93007829D01*
X68202430Y-92984729D01*
X68212920Y-92962551D01*
X68225533Y-92941507D01*
X68240147Y-92921802D01*
X68256623Y-92903623D01*
X68274802Y-92887147D01*
X68294507Y-92872533D01*
X68315551Y-92859920D01*
X68337729Y-92849430D01*
X68360829Y-92841165D01*
X68384627Y-92835204D01*
X68408896Y-92831604D01*
X68433400Y-92830400D01*
X69358400Y-92830400D01*
X69382904Y-92831604D01*
G37*
G04 #@! TD.AperFunction*
G04 #@! TA.AperFunction,SMDPad,CuDef*
G36*
X119357904Y-42331604D02*
G01*
X119382173Y-42335204D01*
X119405971Y-42341165D01*
X119429071Y-42349430D01*
X119451249Y-42359920D01*
X119472293Y-42372533D01*
X119491998Y-42387147D01*
X119510177Y-42403623D01*
X119526653Y-42421802D01*
X119541267Y-42441507D01*
X119553880Y-42462551D01*
X119564370Y-42484729D01*
X119572635Y-42507829D01*
X119578596Y-42531627D01*
X119582196Y-42555896D01*
X119583400Y-42580400D01*
X119583400Y-43830400D01*
X119582196Y-43854904D01*
X119578596Y-43879173D01*
X119572635Y-43902971D01*
X119564370Y-43926071D01*
X119553880Y-43948249D01*
X119541267Y-43969293D01*
X119526653Y-43988998D01*
X119510177Y-44007177D01*
X119491998Y-44023653D01*
X119472293Y-44038267D01*
X119451249Y-44050880D01*
X119429071Y-44061370D01*
X119405971Y-44069635D01*
X119382173Y-44075596D01*
X119357904Y-44079196D01*
X119333400Y-44080400D01*
X118408400Y-44080400D01*
X118383896Y-44079196D01*
X118359627Y-44075596D01*
X118335829Y-44069635D01*
X118312729Y-44061370D01*
X118290551Y-44050880D01*
X118269507Y-44038267D01*
X118249802Y-44023653D01*
X118231623Y-44007177D01*
X118215147Y-43988998D01*
X118200533Y-43969293D01*
X118187920Y-43948249D01*
X118177430Y-43926071D01*
X118169165Y-43902971D01*
X118163204Y-43879173D01*
X118159604Y-43854904D01*
X118158400Y-43830400D01*
X118158400Y-42580400D01*
X118159604Y-42555896D01*
X118163204Y-42531627D01*
X118169165Y-42507829D01*
X118177430Y-42484729D01*
X118187920Y-42462551D01*
X118200533Y-42441507D01*
X118215147Y-42421802D01*
X118231623Y-42403623D01*
X118249802Y-42387147D01*
X118269507Y-42372533D01*
X118290551Y-42359920D01*
X118312729Y-42349430D01*
X118335829Y-42341165D01*
X118359627Y-42335204D01*
X118383896Y-42331604D01*
X118408400Y-42330400D01*
X119333400Y-42330400D01*
X119357904Y-42331604D01*
G37*
G04 #@! TD.AperFunction*
G04 #@! TA.AperFunction,SMDPad,CuDef*
G36*
X116382904Y-42331604D02*
G01*
X116407173Y-42335204D01*
X116430971Y-42341165D01*
X116454071Y-42349430D01*
X116476249Y-42359920D01*
X116497293Y-42372533D01*
X116516998Y-42387147D01*
X116535177Y-42403623D01*
X116551653Y-42421802D01*
X116566267Y-42441507D01*
X116578880Y-42462551D01*
X116589370Y-42484729D01*
X116597635Y-42507829D01*
X116603596Y-42531627D01*
X116607196Y-42555896D01*
X116608400Y-42580400D01*
X116608400Y-43830400D01*
X116607196Y-43854904D01*
X116603596Y-43879173D01*
X116597635Y-43902971D01*
X116589370Y-43926071D01*
X116578880Y-43948249D01*
X116566267Y-43969293D01*
X116551653Y-43988998D01*
X116535177Y-44007177D01*
X116516998Y-44023653D01*
X116497293Y-44038267D01*
X116476249Y-44050880D01*
X116454071Y-44061370D01*
X116430971Y-44069635D01*
X116407173Y-44075596D01*
X116382904Y-44079196D01*
X116358400Y-44080400D01*
X115433400Y-44080400D01*
X115408896Y-44079196D01*
X115384627Y-44075596D01*
X115360829Y-44069635D01*
X115337729Y-44061370D01*
X115315551Y-44050880D01*
X115294507Y-44038267D01*
X115274802Y-44023653D01*
X115256623Y-44007177D01*
X115240147Y-43988998D01*
X115225533Y-43969293D01*
X115212920Y-43948249D01*
X115202430Y-43926071D01*
X115194165Y-43902971D01*
X115188204Y-43879173D01*
X115184604Y-43854904D01*
X115183400Y-43830400D01*
X115183400Y-42580400D01*
X115184604Y-42555896D01*
X115188204Y-42531627D01*
X115194165Y-42507829D01*
X115202430Y-42484729D01*
X115212920Y-42462551D01*
X115225533Y-42441507D01*
X115240147Y-42421802D01*
X115256623Y-42403623D01*
X115274802Y-42387147D01*
X115294507Y-42372533D01*
X115315551Y-42359920D01*
X115337729Y-42349430D01*
X115360829Y-42341165D01*
X115384627Y-42335204D01*
X115408896Y-42331604D01*
X115433400Y-42330400D01*
X116358400Y-42330400D01*
X116382904Y-42331604D01*
G37*
G04 #@! TD.AperFunction*
D13*
X99034200Y-92765600D03*
X97734200Y-92765600D03*
X52034200Y-92765600D03*
X50734200Y-92765600D03*
X99034200Y-42265600D03*
X97734200Y-42265600D03*
X110677800Y-92765600D03*
X109377800Y-92765600D03*
X108077800Y-92765600D03*
X63677800Y-92765600D03*
X62377800Y-92765600D03*
X61077800Y-92765600D03*
X110677800Y-42265600D03*
X109377800Y-42265600D03*
X108077800Y-42265600D03*
D14*
X125790800Y-98252000D03*
D15*
X128330800Y-90632000D03*
X128330800Y-98252000D03*
X125790800Y-90632000D03*
D14*
X78790800Y-98252000D03*
D15*
X81330800Y-90632000D03*
X81330800Y-98252000D03*
X78790800Y-90632000D03*
D14*
X125790800Y-47752000D03*
D15*
X128330800Y-40132000D03*
X128330800Y-47752000D03*
X125790800Y-40132000D03*
D16*
X91272200Y-91749600D03*
X91272200Y-96749600D03*
X44272200Y-91749600D03*
X44272200Y-96749600D03*
X91272200Y-41249600D03*
X91272200Y-46249600D03*
G04 #@! TA.AperFunction,SMDPad,CuDef*
D10*
G36*
X119357904Y-96895604D02*
G01*
X119382173Y-96899204D01*
X119405971Y-96905165D01*
X119429071Y-96913430D01*
X119451249Y-96923920D01*
X119472293Y-96936533D01*
X119491998Y-96951147D01*
X119510177Y-96967623D01*
X119526653Y-96985802D01*
X119541267Y-97005507D01*
X119553880Y-97026551D01*
X119564370Y-97048729D01*
X119572635Y-97071829D01*
X119578596Y-97095627D01*
X119582196Y-97119896D01*
X119583400Y-97144400D01*
X119583400Y-98394400D01*
X119582196Y-98418904D01*
X119578596Y-98443173D01*
X119572635Y-98466971D01*
X119564370Y-98490071D01*
X119553880Y-98512249D01*
X119541267Y-98533293D01*
X119526653Y-98552998D01*
X119510177Y-98571177D01*
X119491998Y-98587653D01*
X119472293Y-98602267D01*
X119451249Y-98614880D01*
X119429071Y-98625370D01*
X119405971Y-98633635D01*
X119382173Y-98639596D01*
X119357904Y-98643196D01*
X119333400Y-98644400D01*
X118408400Y-98644400D01*
X118383896Y-98643196D01*
X118359627Y-98639596D01*
X118335829Y-98633635D01*
X118312729Y-98625370D01*
X118290551Y-98614880D01*
X118269507Y-98602267D01*
X118249802Y-98587653D01*
X118231623Y-98571177D01*
X118215147Y-98552998D01*
X118200533Y-98533293D01*
X118187920Y-98512249D01*
X118177430Y-98490071D01*
X118169165Y-98466971D01*
X118163204Y-98443173D01*
X118159604Y-98418904D01*
X118158400Y-98394400D01*
X118158400Y-97144400D01*
X118159604Y-97119896D01*
X118163204Y-97095627D01*
X118169165Y-97071829D01*
X118177430Y-97048729D01*
X118187920Y-97026551D01*
X118200533Y-97005507D01*
X118215147Y-96985802D01*
X118231623Y-96967623D01*
X118249802Y-96951147D01*
X118269507Y-96936533D01*
X118290551Y-96923920D01*
X118312729Y-96913430D01*
X118335829Y-96905165D01*
X118359627Y-96899204D01*
X118383896Y-96895604D01*
X118408400Y-96894400D01*
X119333400Y-96894400D01*
X119357904Y-96895604D01*
G37*
G04 #@! TD.AperFunction*
G04 #@! TA.AperFunction,SMDPad,CuDef*
G36*
X116382904Y-96895604D02*
G01*
X116407173Y-96899204D01*
X116430971Y-96905165D01*
X116454071Y-96913430D01*
X116476249Y-96923920D01*
X116497293Y-96936533D01*
X116516998Y-96951147D01*
X116535177Y-96967623D01*
X116551653Y-96985802D01*
X116566267Y-97005507D01*
X116578880Y-97026551D01*
X116589370Y-97048729D01*
X116597635Y-97071829D01*
X116603596Y-97095627D01*
X116607196Y-97119896D01*
X116608400Y-97144400D01*
X116608400Y-98394400D01*
X116607196Y-98418904D01*
X116603596Y-98443173D01*
X116597635Y-98466971D01*
X116589370Y-98490071D01*
X116578880Y-98512249D01*
X116566267Y-98533293D01*
X116551653Y-98552998D01*
X116535177Y-98571177D01*
X116516998Y-98587653D01*
X116497293Y-98602267D01*
X116476249Y-98614880D01*
X116454071Y-98625370D01*
X116430971Y-98633635D01*
X116407173Y-98639596D01*
X116382904Y-98643196D01*
X116358400Y-98644400D01*
X115433400Y-98644400D01*
X115408896Y-98643196D01*
X115384627Y-98639596D01*
X115360829Y-98633635D01*
X115337729Y-98625370D01*
X115315551Y-98614880D01*
X115294507Y-98602267D01*
X115274802Y-98587653D01*
X115256623Y-98571177D01*
X115240147Y-98552998D01*
X115225533Y-98533293D01*
X115212920Y-98512249D01*
X115202430Y-98490071D01*
X115194165Y-98466971D01*
X115188204Y-98443173D01*
X115184604Y-98418904D01*
X115183400Y-98394400D01*
X115183400Y-97144400D01*
X115184604Y-97119896D01*
X115188204Y-97095627D01*
X115194165Y-97071829D01*
X115202430Y-97048729D01*
X115212920Y-97026551D01*
X115225533Y-97005507D01*
X115240147Y-96985802D01*
X115256623Y-96967623D01*
X115274802Y-96951147D01*
X115294507Y-96936533D01*
X115315551Y-96923920D01*
X115337729Y-96913430D01*
X115360829Y-96905165D01*
X115384627Y-96899204D01*
X115408896Y-96895604D01*
X115433400Y-96894400D01*
X116358400Y-96894400D01*
X116382904Y-96895604D01*
G37*
G04 #@! TD.AperFunction*
G04 #@! TA.AperFunction,SMDPad,CuDef*
G36*
X72357904Y-96895604D02*
G01*
X72382173Y-96899204D01*
X72405971Y-96905165D01*
X72429071Y-96913430D01*
X72451249Y-96923920D01*
X72472293Y-96936533D01*
X72491998Y-96951147D01*
X72510177Y-96967623D01*
X72526653Y-96985802D01*
X72541267Y-97005507D01*
X72553880Y-97026551D01*
X72564370Y-97048729D01*
X72572635Y-97071829D01*
X72578596Y-97095627D01*
X72582196Y-97119896D01*
X72583400Y-97144400D01*
X72583400Y-98394400D01*
X72582196Y-98418904D01*
X72578596Y-98443173D01*
X72572635Y-98466971D01*
X72564370Y-98490071D01*
X72553880Y-98512249D01*
X72541267Y-98533293D01*
X72526653Y-98552998D01*
X72510177Y-98571177D01*
X72491998Y-98587653D01*
X72472293Y-98602267D01*
X72451249Y-98614880D01*
X72429071Y-98625370D01*
X72405971Y-98633635D01*
X72382173Y-98639596D01*
X72357904Y-98643196D01*
X72333400Y-98644400D01*
X71408400Y-98644400D01*
X71383896Y-98643196D01*
X71359627Y-98639596D01*
X71335829Y-98633635D01*
X71312729Y-98625370D01*
X71290551Y-98614880D01*
X71269507Y-98602267D01*
X71249802Y-98587653D01*
X71231623Y-98571177D01*
X71215147Y-98552998D01*
X71200533Y-98533293D01*
X71187920Y-98512249D01*
X71177430Y-98490071D01*
X71169165Y-98466971D01*
X71163204Y-98443173D01*
X71159604Y-98418904D01*
X71158400Y-98394400D01*
X71158400Y-97144400D01*
X71159604Y-97119896D01*
X71163204Y-97095627D01*
X71169165Y-97071829D01*
X71177430Y-97048729D01*
X71187920Y-97026551D01*
X71200533Y-97005507D01*
X71215147Y-96985802D01*
X71231623Y-96967623D01*
X71249802Y-96951147D01*
X71269507Y-96936533D01*
X71290551Y-96923920D01*
X71312729Y-96913430D01*
X71335829Y-96905165D01*
X71359627Y-96899204D01*
X71383896Y-96895604D01*
X71408400Y-96894400D01*
X72333400Y-96894400D01*
X72357904Y-96895604D01*
G37*
G04 #@! TD.AperFunction*
G04 #@! TA.AperFunction,SMDPad,CuDef*
G36*
X69382904Y-96895604D02*
G01*
X69407173Y-96899204D01*
X69430971Y-96905165D01*
X69454071Y-96913430D01*
X69476249Y-96923920D01*
X69497293Y-96936533D01*
X69516998Y-96951147D01*
X69535177Y-96967623D01*
X69551653Y-96985802D01*
X69566267Y-97005507D01*
X69578880Y-97026551D01*
X69589370Y-97048729D01*
X69597635Y-97071829D01*
X69603596Y-97095627D01*
X69607196Y-97119896D01*
X69608400Y-97144400D01*
X69608400Y-98394400D01*
X69607196Y-98418904D01*
X69603596Y-98443173D01*
X69597635Y-98466971D01*
X69589370Y-98490071D01*
X69578880Y-98512249D01*
X69566267Y-98533293D01*
X69551653Y-98552998D01*
X69535177Y-98571177D01*
X69516998Y-98587653D01*
X69497293Y-98602267D01*
X69476249Y-98614880D01*
X69454071Y-98625370D01*
X69430971Y-98633635D01*
X69407173Y-98639596D01*
X69382904Y-98643196D01*
X69358400Y-98644400D01*
X68433400Y-98644400D01*
X68408896Y-98643196D01*
X68384627Y-98639596D01*
X68360829Y-98633635D01*
X68337729Y-98625370D01*
X68315551Y-98614880D01*
X68294507Y-98602267D01*
X68274802Y-98587653D01*
X68256623Y-98571177D01*
X68240147Y-98552998D01*
X68225533Y-98533293D01*
X68212920Y-98512249D01*
X68202430Y-98490071D01*
X68194165Y-98466971D01*
X68188204Y-98443173D01*
X68184604Y-98418904D01*
X68183400Y-98394400D01*
X68183400Y-97144400D01*
X68184604Y-97119896D01*
X68188204Y-97095627D01*
X68194165Y-97071829D01*
X68202430Y-97048729D01*
X68212920Y-97026551D01*
X68225533Y-97005507D01*
X68240147Y-96985802D01*
X68256623Y-96967623D01*
X68274802Y-96951147D01*
X68294507Y-96936533D01*
X68315551Y-96923920D01*
X68337729Y-96913430D01*
X68360829Y-96905165D01*
X68384627Y-96899204D01*
X68408896Y-96895604D01*
X68433400Y-96894400D01*
X69358400Y-96894400D01*
X69382904Y-96895604D01*
G37*
G04 #@! TD.AperFunction*
G04 #@! TA.AperFunction,SMDPad,CuDef*
G36*
X119357904Y-46395604D02*
G01*
X119382173Y-46399204D01*
X119405971Y-46405165D01*
X119429071Y-46413430D01*
X119451249Y-46423920D01*
X119472293Y-46436533D01*
X119491998Y-46451147D01*
X119510177Y-46467623D01*
X119526653Y-46485802D01*
X119541267Y-46505507D01*
X119553880Y-46526551D01*
X119564370Y-46548729D01*
X119572635Y-46571829D01*
X119578596Y-46595627D01*
X119582196Y-46619896D01*
X119583400Y-46644400D01*
X119583400Y-47894400D01*
X119582196Y-47918904D01*
X119578596Y-47943173D01*
X119572635Y-47966971D01*
X119564370Y-47990071D01*
X119553880Y-48012249D01*
X119541267Y-48033293D01*
X119526653Y-48052998D01*
X119510177Y-48071177D01*
X119491998Y-48087653D01*
X119472293Y-48102267D01*
X119451249Y-48114880D01*
X119429071Y-48125370D01*
X119405971Y-48133635D01*
X119382173Y-48139596D01*
X119357904Y-48143196D01*
X119333400Y-48144400D01*
X118408400Y-48144400D01*
X118383896Y-48143196D01*
X118359627Y-48139596D01*
X118335829Y-48133635D01*
X118312729Y-48125370D01*
X118290551Y-48114880D01*
X118269507Y-48102267D01*
X118249802Y-48087653D01*
X118231623Y-48071177D01*
X118215147Y-48052998D01*
X118200533Y-48033293D01*
X118187920Y-48012249D01*
X118177430Y-47990071D01*
X118169165Y-47966971D01*
X118163204Y-47943173D01*
X118159604Y-47918904D01*
X118158400Y-47894400D01*
X118158400Y-46644400D01*
X118159604Y-46619896D01*
X118163204Y-46595627D01*
X118169165Y-46571829D01*
X118177430Y-46548729D01*
X118187920Y-46526551D01*
X118200533Y-46505507D01*
X118215147Y-46485802D01*
X118231623Y-46467623D01*
X118249802Y-46451147D01*
X118269507Y-46436533D01*
X118290551Y-46423920D01*
X118312729Y-46413430D01*
X118335829Y-46405165D01*
X118359627Y-46399204D01*
X118383896Y-46395604D01*
X118408400Y-46394400D01*
X119333400Y-46394400D01*
X119357904Y-46395604D01*
G37*
G04 #@! TD.AperFunction*
G04 #@! TA.AperFunction,SMDPad,CuDef*
G36*
X116382904Y-46395604D02*
G01*
X116407173Y-46399204D01*
X116430971Y-46405165D01*
X116454071Y-46413430D01*
X116476249Y-46423920D01*
X116497293Y-46436533D01*
X116516998Y-46451147D01*
X116535177Y-46467623D01*
X116551653Y-46485802D01*
X116566267Y-46505507D01*
X116578880Y-46526551D01*
X116589370Y-46548729D01*
X116597635Y-46571829D01*
X116603596Y-46595627D01*
X116607196Y-46619896D01*
X116608400Y-46644400D01*
X116608400Y-47894400D01*
X116607196Y-47918904D01*
X116603596Y-47943173D01*
X116597635Y-47966971D01*
X116589370Y-47990071D01*
X116578880Y-48012249D01*
X116566267Y-48033293D01*
X116551653Y-48052998D01*
X116535177Y-48071177D01*
X116516998Y-48087653D01*
X116497293Y-48102267D01*
X116476249Y-48114880D01*
X116454071Y-48125370D01*
X116430971Y-48133635D01*
X116407173Y-48139596D01*
X116382904Y-48143196D01*
X116358400Y-48144400D01*
X115433400Y-48144400D01*
X115408896Y-48143196D01*
X115384627Y-48139596D01*
X115360829Y-48133635D01*
X115337729Y-48125370D01*
X115315551Y-48114880D01*
X115294507Y-48102267D01*
X115274802Y-48087653D01*
X115256623Y-48071177D01*
X115240147Y-48052998D01*
X115225533Y-48033293D01*
X115212920Y-48012249D01*
X115202430Y-47990071D01*
X115194165Y-47966971D01*
X115188204Y-47943173D01*
X115184604Y-47918904D01*
X115183400Y-47894400D01*
X115183400Y-46644400D01*
X115184604Y-46619896D01*
X115188204Y-46595627D01*
X115194165Y-46571829D01*
X115202430Y-46548729D01*
X115212920Y-46526551D01*
X115225533Y-46505507D01*
X115240147Y-46485802D01*
X115256623Y-46467623D01*
X115274802Y-46451147D01*
X115294507Y-46436533D01*
X115315551Y-46423920D01*
X115337729Y-46413430D01*
X115360829Y-46405165D01*
X115384627Y-46399204D01*
X115408896Y-46395604D01*
X115433400Y-46394400D01*
X116358400Y-46394400D01*
X116382904Y-46395604D01*
G37*
G04 #@! TD.AperFunction*
D13*
X99034200Y-90022400D03*
X97734200Y-90022400D03*
X52034200Y-90022400D03*
X50734200Y-90022400D03*
X99034200Y-39522400D03*
X97734200Y-39522400D03*
X99034200Y-95534200D03*
X97734200Y-95534200D03*
X52034200Y-95534200D03*
X50734200Y-95534200D03*
X99034200Y-45034200D03*
X97734200Y-45034200D03*
D14*
X126019400Y-102316000D03*
D15*
X92999400Y-117556000D03*
X123479400Y-102316000D03*
X95539400Y-117556000D03*
X120939400Y-102316000D03*
X98079400Y-117556000D03*
X118399400Y-102316000D03*
X100619400Y-117556000D03*
X115859400Y-102316000D03*
X103159400Y-117556000D03*
X113319400Y-102316000D03*
X105699400Y-117556000D03*
X110779400Y-102316000D03*
X108239400Y-117556000D03*
X108239400Y-102316000D03*
X110779400Y-117556000D03*
X105699400Y-102316000D03*
X113319400Y-117556000D03*
X103159400Y-102316000D03*
X115859400Y-117556000D03*
X100619400Y-102316000D03*
X118399400Y-117556000D03*
X98079400Y-102316000D03*
X120939400Y-117556000D03*
X95539400Y-102316000D03*
X123479400Y-117556000D03*
X92999400Y-102316000D03*
X126019400Y-117556000D03*
D14*
X79019400Y-102316000D03*
D15*
X45999400Y-117556000D03*
X76479400Y-102316000D03*
X48539400Y-117556000D03*
X73939400Y-102316000D03*
X51079400Y-117556000D03*
X71399400Y-102316000D03*
X53619400Y-117556000D03*
X68859400Y-102316000D03*
X56159400Y-117556000D03*
X66319400Y-102316000D03*
X58699400Y-117556000D03*
X63779400Y-102316000D03*
X61239400Y-117556000D03*
X61239400Y-102316000D03*
X63779400Y-117556000D03*
X58699400Y-102316000D03*
X66319400Y-117556000D03*
X56159400Y-102316000D03*
X68859400Y-117556000D03*
X53619400Y-102316000D03*
X71399400Y-117556000D03*
X51079400Y-102316000D03*
X73939400Y-117556000D03*
X48539400Y-102316000D03*
X76479400Y-117556000D03*
X45999400Y-102316000D03*
X79019400Y-117556000D03*
D14*
X126019400Y-51816000D03*
D15*
X92999400Y-67056000D03*
X123479400Y-51816000D03*
X95539400Y-67056000D03*
X120939400Y-51816000D03*
X98079400Y-67056000D03*
X118399400Y-51816000D03*
X100619400Y-67056000D03*
X115859400Y-51816000D03*
X103159400Y-67056000D03*
X113319400Y-51816000D03*
X105699400Y-67056000D03*
X110779400Y-51816000D03*
X108239400Y-67056000D03*
X108239400Y-51816000D03*
X110779400Y-67056000D03*
X105699400Y-51816000D03*
X113319400Y-67056000D03*
X103159400Y-51816000D03*
X115859400Y-67056000D03*
X100619400Y-51816000D03*
X118399400Y-67056000D03*
X98079400Y-51816000D03*
X120939400Y-67056000D03*
X95539400Y-51816000D03*
X123479400Y-67056000D03*
X92999400Y-51816000D03*
X126019400Y-67056000D03*
D12*
X44754800Y-33578800D03*
X44754800Y-36118800D03*
X47294800Y-33578800D03*
X47294800Y-36118800D03*
X49834800Y-33578800D03*
X49834800Y-36118800D03*
X52374800Y-33578800D03*
X52374800Y-36118800D03*
X54914800Y-33578800D03*
X54914800Y-36118800D03*
X57454800Y-33578800D03*
X57454800Y-36118800D03*
X59994800Y-33578800D03*
X59994800Y-36118800D03*
X62534800Y-33578800D03*
X62534800Y-36118800D03*
X65074800Y-33578800D03*
X65074800Y-36118800D03*
X67614800Y-33578800D03*
X67614800Y-36118800D03*
X70154800Y-33578800D03*
X70154800Y-36118800D03*
X72694800Y-33578800D03*
X72694800Y-36118800D03*
X75234800Y-33578800D03*
X75234800Y-36118800D03*
X77774800Y-33578800D03*
X77774800Y-36118800D03*
X80314800Y-33578800D03*
D11*
X80314800Y-36118800D03*
G04 #@! TA.AperFunction,SMDPad,CuDef*
D10*
G36*
X43235769Y-42865001D02*
G01*
X43259976Y-42868592D01*
X43283715Y-42874538D01*
X43306757Y-42882782D01*
X43328880Y-42893246D01*
X43349871Y-42905827D01*
X43369527Y-42920405D01*
X43387660Y-42936840D01*
X43404095Y-42954973D01*
X43418673Y-42974629D01*
X43431254Y-42995620D01*
X43441718Y-43017743D01*
X43449962Y-43040785D01*
X43455908Y-43064524D01*
X43459499Y-43088731D01*
X43460700Y-43113174D01*
X43460700Y-44364426D01*
X43459499Y-44388869D01*
X43455908Y-44413076D01*
X43449962Y-44436815D01*
X43441718Y-44459857D01*
X43431254Y-44481980D01*
X43418673Y-44502971D01*
X43404095Y-44522627D01*
X43387660Y-44540760D01*
X43369527Y-44557195D01*
X43349871Y-44571773D01*
X43328880Y-44584354D01*
X43306757Y-44594818D01*
X43283715Y-44603062D01*
X43259976Y-44609008D01*
X43235769Y-44612599D01*
X43211326Y-44613800D01*
X42285074Y-44613800D01*
X42260631Y-44612599D01*
X42236424Y-44609008D01*
X42212685Y-44603062D01*
X42189643Y-44594818D01*
X42167520Y-44584354D01*
X42146529Y-44571773D01*
X42126873Y-44557195D01*
X42108740Y-44540760D01*
X42092305Y-44522627D01*
X42077727Y-44502971D01*
X42065146Y-44481980D01*
X42054682Y-44459857D01*
X42046438Y-44436815D01*
X42040492Y-44413076D01*
X42036901Y-44388869D01*
X42035700Y-44364426D01*
X42035700Y-43113174D01*
X42036901Y-43088731D01*
X42040492Y-43064524D01*
X42046438Y-43040785D01*
X42054682Y-43017743D01*
X42065146Y-42995620D01*
X42077727Y-42974629D01*
X42092305Y-42954973D01*
X42108740Y-42936840D01*
X42126873Y-42920405D01*
X42146529Y-42905827D01*
X42167520Y-42893246D01*
X42189643Y-42882782D01*
X42212685Y-42874538D01*
X42236424Y-42868592D01*
X42260631Y-42865001D01*
X42285074Y-42863800D01*
X43211326Y-42863800D01*
X43235769Y-42865001D01*
G37*
G04 #@! TD.AperFunction*
G04 #@! TA.AperFunction,SMDPad,CuDef*
G36*
X46210769Y-42865001D02*
G01*
X46234976Y-42868592D01*
X46258715Y-42874538D01*
X46281757Y-42882782D01*
X46303880Y-42893246D01*
X46324871Y-42905827D01*
X46344527Y-42920405D01*
X46362660Y-42936840D01*
X46379095Y-42954973D01*
X46393673Y-42974629D01*
X46406254Y-42995620D01*
X46416718Y-43017743D01*
X46424962Y-43040785D01*
X46430908Y-43064524D01*
X46434499Y-43088731D01*
X46435700Y-43113174D01*
X46435700Y-44364426D01*
X46434499Y-44388869D01*
X46430908Y-44413076D01*
X46424962Y-44436815D01*
X46416718Y-44459857D01*
X46406254Y-44481980D01*
X46393673Y-44502971D01*
X46379095Y-44522627D01*
X46362660Y-44540760D01*
X46344527Y-44557195D01*
X46324871Y-44571773D01*
X46303880Y-44584354D01*
X46281757Y-44594818D01*
X46258715Y-44603062D01*
X46234976Y-44609008D01*
X46210769Y-44612599D01*
X46186326Y-44613800D01*
X45260074Y-44613800D01*
X45235631Y-44612599D01*
X45211424Y-44609008D01*
X45187685Y-44603062D01*
X45164643Y-44594818D01*
X45142520Y-44584354D01*
X45121529Y-44571773D01*
X45101873Y-44557195D01*
X45083740Y-44540760D01*
X45067305Y-44522627D01*
X45052727Y-44502971D01*
X45040146Y-44481980D01*
X45029682Y-44459857D01*
X45021438Y-44436815D01*
X45015492Y-44413076D01*
X45011901Y-44388869D01*
X45010700Y-44364426D01*
X45010700Y-43113174D01*
X45011901Y-43088731D01*
X45015492Y-43064524D01*
X45021438Y-43040785D01*
X45029682Y-43017743D01*
X45040146Y-42995620D01*
X45052727Y-42974629D01*
X45067305Y-42954973D01*
X45083740Y-42936840D01*
X45101873Y-42920405D01*
X45121529Y-42905827D01*
X45142520Y-42893246D01*
X45164643Y-42882782D01*
X45187685Y-42874538D01*
X45211424Y-42868592D01*
X45235631Y-42865001D01*
X45260074Y-42863800D01*
X46186326Y-42863800D01*
X46210769Y-42865001D01*
G37*
G04 #@! TD.AperFunction*
D15*
X78790800Y-40132000D03*
X81330800Y-47752000D03*
X81330800Y-40132000D03*
D14*
X78790800Y-47752000D03*
D13*
X61077800Y-42265600D03*
X62377800Y-42265600D03*
X63677800Y-42265600D03*
X61057000Y-45720000D03*
X62357000Y-45720000D03*
X63657000Y-45720000D03*
G04 #@! TA.AperFunction,SMDPad,CuDef*
D10*
G36*
X69382904Y-42331604D02*
G01*
X69407173Y-42335204D01*
X69430971Y-42341165D01*
X69454071Y-42349430D01*
X69476249Y-42359920D01*
X69497293Y-42372533D01*
X69516998Y-42387147D01*
X69535177Y-42403623D01*
X69551653Y-42421802D01*
X69566267Y-42441507D01*
X69578880Y-42462551D01*
X69589370Y-42484729D01*
X69597635Y-42507829D01*
X69603596Y-42531627D01*
X69607196Y-42555896D01*
X69608400Y-42580400D01*
X69608400Y-43830400D01*
X69607196Y-43854904D01*
X69603596Y-43879173D01*
X69597635Y-43902971D01*
X69589370Y-43926071D01*
X69578880Y-43948249D01*
X69566267Y-43969293D01*
X69551653Y-43988998D01*
X69535177Y-44007177D01*
X69516998Y-44023653D01*
X69497293Y-44038267D01*
X69476249Y-44050880D01*
X69454071Y-44061370D01*
X69430971Y-44069635D01*
X69407173Y-44075596D01*
X69382904Y-44079196D01*
X69358400Y-44080400D01*
X68433400Y-44080400D01*
X68408896Y-44079196D01*
X68384627Y-44075596D01*
X68360829Y-44069635D01*
X68337729Y-44061370D01*
X68315551Y-44050880D01*
X68294507Y-44038267D01*
X68274802Y-44023653D01*
X68256623Y-44007177D01*
X68240147Y-43988998D01*
X68225533Y-43969293D01*
X68212920Y-43948249D01*
X68202430Y-43926071D01*
X68194165Y-43902971D01*
X68188204Y-43879173D01*
X68184604Y-43854904D01*
X68183400Y-43830400D01*
X68183400Y-42580400D01*
X68184604Y-42555896D01*
X68188204Y-42531627D01*
X68194165Y-42507829D01*
X68202430Y-42484729D01*
X68212920Y-42462551D01*
X68225533Y-42441507D01*
X68240147Y-42421802D01*
X68256623Y-42403623D01*
X68274802Y-42387147D01*
X68294507Y-42372533D01*
X68315551Y-42359920D01*
X68337729Y-42349430D01*
X68360829Y-42341165D01*
X68384627Y-42335204D01*
X68408896Y-42331604D01*
X68433400Y-42330400D01*
X69358400Y-42330400D01*
X69382904Y-42331604D01*
G37*
G04 #@! TD.AperFunction*
G04 #@! TA.AperFunction,SMDPad,CuDef*
G36*
X72357904Y-42331604D02*
G01*
X72382173Y-42335204D01*
X72405971Y-42341165D01*
X72429071Y-42349430D01*
X72451249Y-42359920D01*
X72472293Y-42372533D01*
X72491998Y-42387147D01*
X72510177Y-42403623D01*
X72526653Y-42421802D01*
X72541267Y-42441507D01*
X72553880Y-42462551D01*
X72564370Y-42484729D01*
X72572635Y-42507829D01*
X72578596Y-42531627D01*
X72582196Y-42555896D01*
X72583400Y-42580400D01*
X72583400Y-43830400D01*
X72582196Y-43854904D01*
X72578596Y-43879173D01*
X72572635Y-43902971D01*
X72564370Y-43926071D01*
X72553880Y-43948249D01*
X72541267Y-43969293D01*
X72526653Y-43988998D01*
X72510177Y-44007177D01*
X72491998Y-44023653D01*
X72472293Y-44038267D01*
X72451249Y-44050880D01*
X72429071Y-44061370D01*
X72405971Y-44069635D01*
X72382173Y-44075596D01*
X72357904Y-44079196D01*
X72333400Y-44080400D01*
X71408400Y-44080400D01*
X71383896Y-44079196D01*
X71359627Y-44075596D01*
X71335829Y-44069635D01*
X71312729Y-44061370D01*
X71290551Y-44050880D01*
X71269507Y-44038267D01*
X71249802Y-44023653D01*
X71231623Y-44007177D01*
X71215147Y-43988998D01*
X71200533Y-43969293D01*
X71187920Y-43948249D01*
X71177430Y-43926071D01*
X71169165Y-43902971D01*
X71163204Y-43879173D01*
X71159604Y-43854904D01*
X71158400Y-43830400D01*
X71158400Y-42580400D01*
X71159604Y-42555896D01*
X71163204Y-42531627D01*
X71169165Y-42507829D01*
X71177430Y-42484729D01*
X71187920Y-42462551D01*
X71200533Y-42441507D01*
X71215147Y-42421802D01*
X71231623Y-42403623D01*
X71249802Y-42387147D01*
X71269507Y-42372533D01*
X71290551Y-42359920D01*
X71312729Y-42349430D01*
X71335829Y-42341165D01*
X71359627Y-42335204D01*
X71383896Y-42331604D01*
X71408400Y-42330400D01*
X72333400Y-42330400D01*
X72357904Y-42331604D01*
G37*
G04 #@! TD.AperFunction*
G04 #@! TA.AperFunction,SMDPad,CuDef*
G36*
X69382904Y-46395604D02*
G01*
X69407173Y-46399204D01*
X69430971Y-46405165D01*
X69454071Y-46413430D01*
X69476249Y-46423920D01*
X69497293Y-46436533D01*
X69516998Y-46451147D01*
X69535177Y-46467623D01*
X69551653Y-46485802D01*
X69566267Y-46505507D01*
X69578880Y-46526551D01*
X69589370Y-46548729D01*
X69597635Y-46571829D01*
X69603596Y-46595627D01*
X69607196Y-46619896D01*
X69608400Y-46644400D01*
X69608400Y-47894400D01*
X69607196Y-47918904D01*
X69603596Y-47943173D01*
X69597635Y-47966971D01*
X69589370Y-47990071D01*
X69578880Y-48012249D01*
X69566267Y-48033293D01*
X69551653Y-48052998D01*
X69535177Y-48071177D01*
X69516998Y-48087653D01*
X69497293Y-48102267D01*
X69476249Y-48114880D01*
X69454071Y-48125370D01*
X69430971Y-48133635D01*
X69407173Y-48139596D01*
X69382904Y-48143196D01*
X69358400Y-48144400D01*
X68433400Y-48144400D01*
X68408896Y-48143196D01*
X68384627Y-48139596D01*
X68360829Y-48133635D01*
X68337729Y-48125370D01*
X68315551Y-48114880D01*
X68294507Y-48102267D01*
X68274802Y-48087653D01*
X68256623Y-48071177D01*
X68240147Y-48052998D01*
X68225533Y-48033293D01*
X68212920Y-48012249D01*
X68202430Y-47990071D01*
X68194165Y-47966971D01*
X68188204Y-47943173D01*
X68184604Y-47918904D01*
X68183400Y-47894400D01*
X68183400Y-46644400D01*
X68184604Y-46619896D01*
X68188204Y-46595627D01*
X68194165Y-46571829D01*
X68202430Y-46548729D01*
X68212920Y-46526551D01*
X68225533Y-46505507D01*
X68240147Y-46485802D01*
X68256623Y-46467623D01*
X68274802Y-46451147D01*
X68294507Y-46436533D01*
X68315551Y-46423920D01*
X68337729Y-46413430D01*
X68360829Y-46405165D01*
X68384627Y-46399204D01*
X68408896Y-46395604D01*
X68433400Y-46394400D01*
X69358400Y-46394400D01*
X69382904Y-46395604D01*
G37*
G04 #@! TD.AperFunction*
G04 #@! TA.AperFunction,SMDPad,CuDef*
G36*
X72357904Y-46395604D02*
G01*
X72382173Y-46399204D01*
X72405971Y-46405165D01*
X72429071Y-46413430D01*
X72451249Y-46423920D01*
X72472293Y-46436533D01*
X72491998Y-46451147D01*
X72510177Y-46467623D01*
X72526653Y-46485802D01*
X72541267Y-46505507D01*
X72553880Y-46526551D01*
X72564370Y-46548729D01*
X72572635Y-46571829D01*
X72578596Y-46595627D01*
X72582196Y-46619896D01*
X72583400Y-46644400D01*
X72583400Y-47894400D01*
X72582196Y-47918904D01*
X72578596Y-47943173D01*
X72572635Y-47966971D01*
X72564370Y-47990071D01*
X72553880Y-48012249D01*
X72541267Y-48033293D01*
X72526653Y-48052998D01*
X72510177Y-48071177D01*
X72491998Y-48087653D01*
X72472293Y-48102267D01*
X72451249Y-48114880D01*
X72429071Y-48125370D01*
X72405971Y-48133635D01*
X72382173Y-48139596D01*
X72357904Y-48143196D01*
X72333400Y-48144400D01*
X71408400Y-48144400D01*
X71383896Y-48143196D01*
X71359627Y-48139596D01*
X71335829Y-48133635D01*
X71312729Y-48125370D01*
X71290551Y-48114880D01*
X71269507Y-48102267D01*
X71249802Y-48087653D01*
X71231623Y-48071177D01*
X71215147Y-48052998D01*
X71200533Y-48033293D01*
X71187920Y-48012249D01*
X71177430Y-47990071D01*
X71169165Y-47966971D01*
X71163204Y-47943173D01*
X71159604Y-47918904D01*
X71158400Y-47894400D01*
X71158400Y-46644400D01*
X71159604Y-46619896D01*
X71163204Y-46595627D01*
X71169165Y-46571829D01*
X71177430Y-46548729D01*
X71187920Y-46526551D01*
X71200533Y-46505507D01*
X71215147Y-46485802D01*
X71231623Y-46467623D01*
X71249802Y-46451147D01*
X71269507Y-46436533D01*
X71290551Y-46423920D01*
X71312729Y-46413430D01*
X71335829Y-46405165D01*
X71359627Y-46399204D01*
X71383896Y-46395604D01*
X71408400Y-46394400D01*
X72333400Y-46394400D01*
X72357904Y-46395604D01*
G37*
G04 #@! TD.AperFunction*
D13*
X52034200Y-47726600D03*
X50734200Y-47726600D03*
X50734200Y-45034200D03*
X52034200Y-45034200D03*
X50734200Y-42265600D03*
X52034200Y-42265600D03*
X50734200Y-39522400D03*
X52034200Y-39522400D03*
D15*
X79019400Y-67056000D03*
X45999400Y-51816000D03*
X76479400Y-67056000D03*
X48539400Y-51816000D03*
X73939400Y-67056000D03*
X51079400Y-51816000D03*
X71399400Y-67056000D03*
X53619400Y-51816000D03*
X68859400Y-67056000D03*
X56159400Y-51816000D03*
X66319400Y-67056000D03*
X58699400Y-51816000D03*
X63779400Y-67056000D03*
X61239400Y-51816000D03*
X61239400Y-67056000D03*
X63779400Y-51816000D03*
X58699400Y-67056000D03*
X66319400Y-51816000D03*
X56159400Y-67056000D03*
X68859400Y-51816000D03*
X53619400Y-67056000D03*
X71399400Y-51816000D03*
X51079400Y-67056000D03*
X73939400Y-51816000D03*
X48539400Y-67056000D03*
X76479400Y-51816000D03*
X45999400Y-67056000D03*
D14*
X79019400Y-51816000D03*
D16*
X44272200Y-46249600D03*
X44272200Y-41249600D03*
D17*
X45072199Y-47049599D02*
X44272200Y-46249600D01*
X45072199Y-47078799D02*
X45072199Y-47049599D01*
X50734200Y-47726600D02*
X45720000Y-47726600D01*
X45720000Y-47726600D02*
X45072199Y-47078799D01*
X45723200Y-44798600D02*
X45723200Y-43738800D01*
X44272200Y-46249600D02*
X45723200Y-44798600D01*
X97734200Y-47726600D02*
X92720000Y-47726600D01*
X50734200Y-98226600D02*
X45720000Y-98226600D01*
X97734200Y-98226600D02*
X92720000Y-98226600D01*
X92720000Y-47726600D02*
X92072199Y-47078799D01*
X45720000Y-98226600D02*
X45072199Y-97578799D01*
X92720000Y-98226600D02*
X92072199Y-97578799D01*
X92072199Y-47078799D02*
X92072199Y-47049599D01*
X45072199Y-97578799D02*
X45072199Y-97549599D01*
X92072199Y-97578799D02*
X92072199Y-97549599D01*
X92072199Y-47049599D02*
X91272200Y-46249600D01*
X45072199Y-97549599D02*
X44272200Y-96749600D01*
X92072199Y-97549599D02*
X91272200Y-96749600D01*
X92723200Y-44798600D02*
X92723200Y-43738800D01*
X45723200Y-95298600D02*
X45723200Y-94238800D01*
X92723200Y-95298600D02*
X92723200Y-94238800D01*
X91272200Y-46249600D02*
X92723200Y-44798600D01*
X44272200Y-96749600D02*
X45723200Y-95298600D01*
X91272200Y-96749600D02*
X92723200Y-95298600D01*
D18*
X71870900Y-43205400D02*
X71870900Y-47269400D01*
X80924400Y-49682400D02*
X73408900Y-49682400D01*
X82753200Y-51511200D02*
X80924400Y-49682400D01*
X82753200Y-66802000D02*
X82753200Y-51511200D01*
X71870900Y-48144400D02*
X71870900Y-47269400D01*
X41579800Y-66395600D02*
X44170600Y-68986400D01*
X73408900Y-49682400D02*
X71870900Y-48144400D01*
X80568800Y-68986400D02*
X82753200Y-66802000D01*
X79019400Y-68986400D02*
X79019400Y-67056000D01*
X44170600Y-68986400D02*
X79019400Y-68986400D01*
X79019400Y-68986400D02*
X80568800Y-68986400D01*
X44272200Y-42214800D02*
X42748200Y-43738800D01*
X44272200Y-41249600D02*
X44272200Y-42214800D01*
X42035700Y-43738800D02*
X41579800Y-44194700D01*
X41579800Y-44194700D02*
X41579800Y-66395600D01*
X42748200Y-43738800D02*
X42035700Y-43738800D01*
X127924400Y-49682400D02*
X120408900Y-49682400D01*
X80924400Y-100182400D02*
X73408900Y-100182400D01*
X127924400Y-100182400D02*
X120408900Y-100182400D01*
X129753200Y-66802000D02*
X129753200Y-51511200D01*
X82753200Y-117302000D02*
X82753200Y-102011200D01*
X129753200Y-117302000D02*
X129753200Y-102011200D01*
X127568800Y-68986400D02*
X129753200Y-66802000D01*
X80568800Y-119486400D02*
X82753200Y-117302000D01*
X127568800Y-119486400D02*
X129753200Y-117302000D01*
X91170600Y-68986400D02*
X126019400Y-68986400D01*
X44170600Y-119486400D02*
X79019400Y-119486400D01*
X91170600Y-119486400D02*
X126019400Y-119486400D01*
X91272200Y-41249600D02*
X91272200Y-42214800D01*
X44272200Y-91749600D02*
X44272200Y-92714800D01*
X91272200Y-91749600D02*
X91272200Y-92714800D01*
X89035700Y-43738800D02*
X88579800Y-44194700D01*
X42035700Y-94238800D02*
X41579800Y-94694700D01*
X89035700Y-94238800D02*
X88579800Y-94694700D01*
X118870900Y-48144400D02*
X118870900Y-47269400D01*
X71870900Y-98644400D02*
X71870900Y-97769400D01*
X118870900Y-98644400D02*
X118870900Y-97769400D01*
X126019400Y-68986400D02*
X126019400Y-67056000D01*
X79019400Y-119486400D02*
X79019400Y-117556000D01*
X126019400Y-119486400D02*
X126019400Y-117556000D01*
X88579800Y-44194700D02*
X88579800Y-66395600D01*
X41579800Y-94694700D02*
X41579800Y-116895600D01*
X88579800Y-94694700D02*
X88579800Y-116895600D01*
X120408900Y-49682400D02*
X118870900Y-48144400D01*
X73408900Y-100182400D02*
X71870900Y-98644400D01*
X120408900Y-100182400D02*
X118870900Y-98644400D01*
X89748200Y-43738800D02*
X89035700Y-43738800D01*
X42748200Y-94238800D02*
X42035700Y-94238800D01*
X89748200Y-94238800D02*
X89035700Y-94238800D01*
X118870900Y-43205400D02*
X118870900Y-47269400D01*
X71870900Y-93705400D02*
X71870900Y-97769400D01*
X118870900Y-93705400D02*
X118870900Y-97769400D01*
X91272200Y-42214800D02*
X89748200Y-43738800D01*
X44272200Y-92714800D02*
X42748200Y-94238800D01*
X91272200Y-92714800D02*
X89748200Y-94238800D01*
X129753200Y-51511200D02*
X127924400Y-49682400D01*
X82753200Y-102011200D02*
X80924400Y-100182400D01*
X129753200Y-102011200D02*
X127924400Y-100182400D01*
X88579800Y-66395600D02*
X91170600Y-68986400D01*
X41579800Y-116895600D02*
X44170600Y-119486400D01*
X88579800Y-116895600D02*
X91170600Y-119486400D01*
X126019400Y-68986400D02*
X127568800Y-68986400D01*
X79019400Y-119486400D02*
X80568800Y-119486400D01*
X126019400Y-119486400D02*
X127568800Y-119486400D01*
D17*
X63677800Y-42265600D02*
X63677800Y-41215600D01*
X63677800Y-41215600D02*
X65270831Y-39622569D01*
X76811031Y-39622569D02*
X80314800Y-36118800D01*
X65270831Y-39622569D02*
X76811031Y-39622569D01*
X110677800Y-42265600D02*
X110677800Y-41215600D01*
X63677800Y-92765600D02*
X63677800Y-91715600D01*
X110677800Y-92765600D02*
X110677800Y-91715600D01*
X110677800Y-41215600D02*
X112270831Y-39622569D01*
X63677800Y-91715600D02*
X65270831Y-90122569D01*
X110677800Y-91715600D02*
X112270831Y-90122569D01*
X123811031Y-39622569D02*
X127314800Y-36118800D01*
X76811031Y-90122569D02*
X80314800Y-86618800D01*
X123811031Y-90122569D02*
X127314800Y-86618800D01*
X112270831Y-39622569D02*
X123811031Y-39622569D01*
X65270831Y-90122569D02*
X76811031Y-90122569D01*
X112270831Y-90122569D02*
X123811031Y-90122569D01*
X71424800Y-34848800D02*
X72694800Y-33578800D01*
X52834200Y-39522400D02*
X54409000Y-37947600D01*
X52034200Y-39522400D02*
X52834200Y-39522400D01*
X70586600Y-37947600D02*
X71424800Y-37109400D01*
X54409000Y-37947600D02*
X70586600Y-37947600D01*
X71424800Y-37109400D02*
X71424800Y-34848800D01*
X118424800Y-34848800D02*
X119694800Y-33578800D01*
X71424800Y-85348800D02*
X72694800Y-84078800D01*
X118424800Y-85348800D02*
X119694800Y-84078800D01*
X99834200Y-39522400D02*
X101409000Y-37947600D01*
X52834200Y-90022400D02*
X54409000Y-88447600D01*
X99834200Y-90022400D02*
X101409000Y-88447600D01*
X101409000Y-37947600D02*
X117586600Y-37947600D01*
X54409000Y-88447600D02*
X70586600Y-88447600D01*
X101409000Y-88447600D02*
X117586600Y-88447600D01*
X117586600Y-37947600D02*
X118424800Y-37109400D01*
X70586600Y-88447600D02*
X71424800Y-87609400D01*
X117586600Y-88447600D02*
X118424800Y-87609400D01*
X118424800Y-37109400D02*
X118424800Y-34848800D01*
X71424800Y-87609400D02*
X71424800Y-85348800D01*
X118424800Y-87609400D02*
X118424800Y-85348800D01*
X99034200Y-39522400D02*
X99834200Y-39522400D01*
X52034200Y-90022400D02*
X52834200Y-90022400D01*
X99034200Y-90022400D02*
X99834200Y-90022400D01*
X72731053Y-38622547D02*
X74384801Y-36968799D01*
X52034200Y-42265600D02*
X52034200Y-42015600D01*
X52034200Y-42015600D02*
X55427253Y-38622547D01*
X74384801Y-36968799D02*
X75234800Y-36118800D01*
X55427253Y-38622547D02*
X72731053Y-38622547D01*
X121384801Y-36968799D02*
X122234800Y-36118800D01*
X74384801Y-87468799D02*
X75234800Y-86618800D01*
X121384801Y-87468799D02*
X122234800Y-86618800D01*
X119731053Y-38622547D02*
X121384801Y-36968799D01*
X72731053Y-89122547D02*
X74384801Y-87468799D01*
X119731053Y-89122547D02*
X121384801Y-87468799D01*
X102427253Y-38622547D02*
X119731053Y-38622547D01*
X55427253Y-89122547D02*
X72731053Y-89122547D01*
X102427253Y-89122547D02*
X119731053Y-89122547D01*
X99034200Y-42265600D02*
X99034200Y-42015600D01*
X52034200Y-92765600D02*
X52034200Y-92515600D01*
X99034200Y-92765600D02*
X99034200Y-92515600D01*
X99034200Y-42015600D02*
X102427253Y-38622547D01*
X52034200Y-92515600D02*
X55427253Y-89122547D01*
X99034200Y-92515600D02*
X102427253Y-89122547D01*
X76504800Y-37490400D02*
X76504800Y-34848800D01*
X52034200Y-44784200D02*
X57695842Y-39122558D01*
X74872638Y-39122558D02*
X76504800Y-37490400D01*
X57695842Y-39122558D02*
X74872638Y-39122558D01*
X52034200Y-45034200D02*
X52034200Y-44784200D01*
X76084799Y-34428799D02*
X75234800Y-33578800D01*
X76504800Y-34848800D02*
X76084799Y-34428799D01*
X123504800Y-37490400D02*
X123504800Y-34848800D01*
X76504800Y-87990400D02*
X76504800Y-85348800D01*
X123504800Y-87990400D02*
X123504800Y-85348800D01*
X99034200Y-45034200D02*
X99034200Y-44784200D01*
X52034200Y-95534200D02*
X52034200Y-95284200D01*
X99034200Y-95534200D02*
X99034200Y-95284200D01*
X123084799Y-34428799D02*
X122234800Y-33578800D01*
X76084799Y-84928799D02*
X75234800Y-84078800D01*
X123084799Y-84928799D02*
X122234800Y-84078800D01*
X121872638Y-39122558D02*
X123504800Y-37490400D01*
X74872638Y-89622558D02*
X76504800Y-87990400D01*
X121872638Y-89622558D02*
X123504800Y-87990400D01*
X104695842Y-39122558D02*
X121872638Y-39122558D01*
X57695842Y-89622558D02*
X74872638Y-89622558D01*
X104695842Y-89622558D02*
X121872638Y-89622558D01*
X123504800Y-34848800D02*
X123084799Y-34428799D01*
X76504800Y-85348800D02*
X76084799Y-84928799D01*
X123504800Y-85348800D02*
X123084799Y-84928799D01*
X99034200Y-44784200D02*
X104695842Y-39122558D01*
X52034200Y-95284200D02*
X57695842Y-89622558D01*
X99034200Y-95284200D02*
X104695842Y-89622558D01*
X70137389Y-43912689D02*
X68330078Y-45720000D01*
X70137390Y-41753688D02*
X70137389Y-43912689D01*
X83108800Y-35170719D02*
X83108800Y-36372800D01*
X71014489Y-40876589D02*
X70137390Y-41753688D01*
X80314800Y-33578800D02*
X81516881Y-33578800D01*
X83108800Y-36372800D02*
X80180799Y-39300801D01*
X68330078Y-45720000D02*
X63657000Y-45720000D01*
X81516881Y-33578800D02*
X83108800Y-35170719D01*
X80180799Y-39300801D02*
X80155399Y-39300801D01*
X80060800Y-39395400D02*
X80060800Y-41046400D01*
X80060800Y-41046400D02*
X79527400Y-41579800D01*
X79527400Y-41579800D02*
X77338922Y-41579800D01*
X80155399Y-39300801D02*
X80060800Y-39395400D01*
X77338922Y-41579800D02*
X76635711Y-40876589D01*
X76635711Y-40876589D02*
X71014489Y-40876589D01*
X117137390Y-41753688D02*
X117137389Y-43912689D01*
X70137390Y-92253688D02*
X70137389Y-94412689D01*
X117137390Y-92253688D02*
X117137389Y-94412689D01*
X127060800Y-39395400D02*
X127060800Y-41046400D01*
X80060800Y-89895400D02*
X80060800Y-91546400D01*
X127060800Y-89895400D02*
X127060800Y-91546400D01*
X127060800Y-41046400D02*
X126527400Y-41579800D01*
X80060800Y-91546400D02*
X79527400Y-92079800D01*
X127060800Y-91546400D02*
X126527400Y-92079800D01*
X127180799Y-39300801D02*
X127155399Y-39300801D01*
X80180799Y-89800801D02*
X80155399Y-89800801D01*
X127180799Y-89800801D02*
X127155399Y-89800801D01*
X118014489Y-40876589D02*
X117137390Y-41753688D01*
X71014489Y-91376589D02*
X70137390Y-92253688D01*
X118014489Y-91376589D02*
X117137390Y-92253688D01*
X127314800Y-33578800D02*
X128516881Y-33578800D01*
X80314800Y-84078800D02*
X81516881Y-84078800D01*
X127314800Y-84078800D02*
X128516881Y-84078800D01*
X130108800Y-36372800D02*
X127180799Y-39300801D01*
X83108800Y-86872800D02*
X80180799Y-89800801D01*
X130108800Y-86872800D02*
X127180799Y-89800801D01*
X126527400Y-41579800D02*
X124338922Y-41579800D01*
X79527400Y-92079800D02*
X77338922Y-92079800D01*
X126527400Y-92079800D02*
X124338922Y-92079800D01*
X127155399Y-39300801D02*
X127060800Y-39395400D01*
X80155399Y-89800801D02*
X80060800Y-89895400D01*
X127155399Y-89800801D02*
X127060800Y-89895400D01*
X123635711Y-40876589D02*
X118014489Y-40876589D01*
X76635711Y-91376589D02*
X71014489Y-91376589D01*
X123635711Y-91376589D02*
X118014489Y-91376589D01*
X117137389Y-43912689D02*
X115330078Y-45720000D01*
X70137389Y-94412689D02*
X68330078Y-96220000D01*
X117137389Y-94412689D02*
X115330078Y-96220000D01*
X130108800Y-35170719D02*
X130108800Y-36372800D01*
X83108800Y-85670719D02*
X83108800Y-86872800D01*
X130108800Y-85670719D02*
X130108800Y-86872800D01*
X115330078Y-45720000D02*
X110657000Y-45720000D01*
X68330078Y-96220000D02*
X63657000Y-96220000D01*
X115330078Y-96220000D02*
X110657000Y-96220000D01*
X124338922Y-41579800D02*
X123635711Y-40876589D01*
X77338922Y-92079800D02*
X76635711Y-91376589D01*
X124338922Y-92079800D02*
X123635711Y-91376589D01*
X128516881Y-33578800D02*
X130108800Y-35170719D01*
X81516881Y-84078800D02*
X83108800Y-85670719D01*
X128516881Y-84078800D02*
X130108800Y-85670719D01*
X50734200Y-39522400D02*
X50734200Y-45034200D01*
X52034200Y-46676600D02*
X52034200Y-47726600D01*
X51788800Y-46431200D02*
X52034200Y-46676600D01*
X51081200Y-46431200D02*
X51788800Y-46431200D01*
X50734200Y-46084200D02*
X51081200Y-46431200D01*
X50734200Y-45034200D02*
X50734200Y-46084200D01*
X61315600Y-64592200D02*
X63779400Y-67056000D01*
X52034200Y-47726600D02*
X52034200Y-50408600D01*
X52034200Y-50408600D02*
X52374800Y-50749200D01*
X56235600Y-64592200D02*
X61315600Y-64592200D01*
X52374800Y-50749200D02*
X52374800Y-60731400D01*
X52374800Y-60731400D02*
X56235600Y-64592200D01*
X99034200Y-50408600D02*
X99374800Y-50749200D01*
X52034200Y-100908600D02*
X52374800Y-101249200D01*
X99034200Y-100908600D02*
X99374800Y-101249200D01*
X97734200Y-39522400D02*
X97734200Y-45034200D01*
X50734200Y-90022400D02*
X50734200Y-95534200D01*
X97734200Y-90022400D02*
X97734200Y-95534200D01*
X98788800Y-46431200D02*
X99034200Y-46676600D01*
X51788800Y-96931200D02*
X52034200Y-97176600D01*
X98788800Y-96931200D02*
X99034200Y-97176600D01*
X98081200Y-46431200D02*
X98788800Y-46431200D01*
X51081200Y-96931200D02*
X51788800Y-96931200D01*
X98081200Y-96931200D02*
X98788800Y-96931200D01*
X103235600Y-64592200D02*
X108315600Y-64592200D01*
X56235600Y-115092200D02*
X61315600Y-115092200D01*
X103235600Y-115092200D02*
X108315600Y-115092200D01*
X99374800Y-60731400D02*
X103235600Y-64592200D01*
X52374800Y-111231400D02*
X56235600Y-115092200D01*
X99374800Y-111231400D02*
X103235600Y-115092200D01*
X108315600Y-64592200D02*
X110779400Y-67056000D01*
X61315600Y-115092200D02*
X63779400Y-117556000D01*
X108315600Y-115092200D02*
X110779400Y-117556000D01*
X99374800Y-50749200D02*
X99374800Y-60731400D01*
X52374800Y-101249200D02*
X52374800Y-111231400D01*
X99374800Y-101249200D02*
X99374800Y-111231400D01*
X99034200Y-46676600D02*
X99034200Y-47726600D01*
X52034200Y-97176600D02*
X52034200Y-98226600D01*
X99034200Y-97176600D02*
X99034200Y-98226600D01*
X97734200Y-45034200D02*
X97734200Y-46084200D01*
X50734200Y-95534200D02*
X50734200Y-96584200D01*
X97734200Y-95534200D02*
X97734200Y-96584200D01*
X97734200Y-46084200D02*
X98081200Y-46431200D01*
X50734200Y-96584200D02*
X51081200Y-96931200D01*
X97734200Y-96584200D02*
X98081200Y-96931200D01*
X99034200Y-47726600D02*
X99034200Y-50408600D01*
X52034200Y-98226600D02*
X52034200Y-100908600D01*
X99034200Y-98226600D02*
X99034200Y-100908600D01*
X67616611Y-43772189D02*
X68183400Y-43205400D01*
X61077800Y-42265600D02*
X61077800Y-43315600D01*
X68183400Y-43205400D02*
X68895900Y-43205400D01*
X61077800Y-43315600D02*
X61534389Y-43772189D01*
X61534389Y-43772189D02*
X67616611Y-43772189D01*
X68895900Y-43205400D02*
X68895900Y-42288056D01*
X77659430Y-40132000D02*
X78790800Y-40132000D01*
X71061378Y-40122578D02*
X77650008Y-40122578D01*
X77650008Y-40122578D02*
X77659430Y-40132000D01*
X68895900Y-42288056D02*
X71061378Y-40122578D01*
X114616611Y-43772189D02*
X115183400Y-43205400D01*
X67616611Y-94272189D02*
X68183400Y-93705400D01*
X114616611Y-94272189D02*
X115183400Y-93705400D01*
X108077800Y-42265600D02*
X108077800Y-43315600D01*
X61077800Y-92765600D02*
X61077800Y-93815600D01*
X108077800Y-92765600D02*
X108077800Y-93815600D01*
X108534389Y-43772189D02*
X114616611Y-43772189D01*
X61534389Y-94272189D02*
X67616611Y-94272189D01*
X108534389Y-94272189D02*
X114616611Y-94272189D01*
X118061378Y-40122578D02*
X124650008Y-40122578D01*
X71061378Y-90622578D02*
X77650008Y-90622578D01*
X118061378Y-90622578D02*
X124650008Y-90622578D01*
X108077800Y-43315600D02*
X108534389Y-43772189D01*
X61077800Y-93815600D02*
X61534389Y-94272189D01*
X108077800Y-93815600D02*
X108534389Y-94272189D01*
X115895900Y-42288056D02*
X118061378Y-40122578D01*
X68895900Y-92788056D02*
X71061378Y-90622578D01*
X115895900Y-92788056D02*
X118061378Y-90622578D01*
X115183400Y-43205400D02*
X115895900Y-43205400D01*
X68183400Y-93705400D02*
X68895900Y-93705400D01*
X115183400Y-93705400D02*
X115895900Y-93705400D01*
X124659430Y-40132000D02*
X125790800Y-40132000D01*
X77659430Y-90632000D02*
X78790800Y-90632000D01*
X124659430Y-90632000D02*
X125790800Y-90632000D01*
X115895900Y-43205400D02*
X115895900Y-42288056D01*
X68895900Y-93705400D02*
X68895900Y-92788056D01*
X115895900Y-93705400D02*
X115895900Y-92788056D01*
X124650008Y-40122578D02*
X124659430Y-40132000D01*
X77650008Y-90622578D02*
X77659430Y-90632000D01*
X124650008Y-90622578D02*
X124659430Y-90632000D01*
X62377800Y-41215600D02*
X61599000Y-40436800D01*
X62377800Y-42265600D02*
X62377800Y-41215600D01*
X61599000Y-40436800D02*
X59182000Y-40436800D01*
X59182000Y-40436800D02*
X57429400Y-42189400D01*
X57429400Y-52248002D02*
X57454800Y-52273402D01*
X57429400Y-42189400D02*
X57429400Y-52248002D01*
X57454800Y-52273402D02*
X57454800Y-53594000D01*
X57454800Y-53594000D02*
X59563000Y-55702200D01*
X59563000Y-55702200D02*
X75463400Y-55702200D01*
X76479400Y-56718200D02*
X76479400Y-67056000D01*
X75463400Y-55702200D02*
X76479400Y-56718200D01*
X123479400Y-56718200D02*
X123479400Y-67056000D01*
X76479400Y-107218200D02*
X76479400Y-117556000D01*
X123479400Y-107218200D02*
X123479400Y-117556000D01*
X104429400Y-52248002D02*
X104454800Y-52273402D01*
X57429400Y-102748002D02*
X57454800Y-102773402D01*
X104429400Y-102748002D02*
X104454800Y-102773402D01*
X122463400Y-55702200D02*
X123479400Y-56718200D01*
X75463400Y-106202200D02*
X76479400Y-107218200D01*
X122463400Y-106202200D02*
X123479400Y-107218200D01*
X109377800Y-41215600D02*
X108599000Y-40436800D01*
X62377800Y-91715600D02*
X61599000Y-90936800D01*
X109377800Y-91715600D02*
X108599000Y-90936800D01*
X108599000Y-40436800D02*
X106182000Y-40436800D01*
X61599000Y-90936800D02*
X59182000Y-90936800D01*
X108599000Y-90936800D02*
X106182000Y-90936800D01*
X109377800Y-42265600D02*
X109377800Y-41215600D01*
X62377800Y-92765600D02*
X62377800Y-91715600D01*
X109377800Y-92765600D02*
X109377800Y-91715600D01*
X104429400Y-42189400D02*
X104429400Y-52248002D01*
X57429400Y-92689400D02*
X57429400Y-102748002D01*
X104429400Y-92689400D02*
X104429400Y-102748002D01*
X104454800Y-52273402D02*
X104454800Y-53594000D01*
X57454800Y-102773402D02*
X57454800Y-104094000D01*
X104454800Y-102773402D02*
X104454800Y-104094000D01*
X106182000Y-40436800D02*
X104429400Y-42189400D01*
X59182000Y-90936800D02*
X57429400Y-92689400D01*
X106182000Y-90936800D02*
X104429400Y-92689400D01*
X106563000Y-55702200D02*
X122463400Y-55702200D01*
X59563000Y-106202200D02*
X75463400Y-106202200D01*
X106563000Y-106202200D02*
X122463400Y-106202200D01*
X104454800Y-53594000D02*
X106563000Y-55702200D01*
X57454800Y-104094000D02*
X59563000Y-106202200D01*
X104454800Y-104094000D02*
X106563000Y-106202200D01*
X61057000Y-46770000D02*
X61886600Y-47599600D01*
X61057000Y-45720000D02*
X61057000Y-46770000D01*
X61886600Y-47599600D02*
X67157600Y-47599600D01*
X67487800Y-47269400D02*
X68895900Y-47269400D01*
X67157600Y-47599600D02*
X67487800Y-47269400D01*
X81330800Y-41503600D02*
X81330800Y-40132000D01*
X80645000Y-42189400D02*
X81330800Y-41503600D01*
X76809600Y-42189400D02*
X80645000Y-42189400D01*
X69608400Y-47269400D02*
X70637400Y-46240400D01*
X70637400Y-41960800D02*
X71221600Y-41376600D01*
X68895900Y-47269400D02*
X69608400Y-47269400D01*
X75996800Y-41376600D02*
X76809600Y-42189400D01*
X70637400Y-46240400D02*
X70637400Y-41960800D01*
X71221600Y-41376600D02*
X75996800Y-41376600D01*
X123809600Y-42189400D02*
X127645000Y-42189400D01*
X76809600Y-92689400D02*
X80645000Y-92689400D01*
X123809600Y-92689400D02*
X127645000Y-92689400D01*
X108057000Y-45720000D02*
X108057000Y-46770000D01*
X61057000Y-96220000D02*
X61057000Y-97270000D01*
X108057000Y-96220000D02*
X108057000Y-97270000D01*
X114487800Y-47269400D02*
X115895900Y-47269400D01*
X67487800Y-97769400D02*
X68895900Y-97769400D01*
X114487800Y-97769400D02*
X115895900Y-97769400D01*
X118221600Y-41376600D02*
X122996800Y-41376600D01*
X71221600Y-91876600D02*
X75996800Y-91876600D01*
X118221600Y-91876600D02*
X122996800Y-91876600D01*
X122996800Y-41376600D02*
X123809600Y-42189400D01*
X75996800Y-91876600D02*
X76809600Y-92689400D01*
X122996800Y-91876600D02*
X123809600Y-92689400D01*
X108057000Y-46770000D02*
X108886600Y-47599600D01*
X61057000Y-97270000D02*
X61886600Y-98099600D01*
X108057000Y-97270000D02*
X108886600Y-98099600D01*
X128330800Y-41503600D02*
X128330800Y-40132000D01*
X81330800Y-92003600D02*
X81330800Y-90632000D01*
X128330800Y-92003600D02*
X128330800Y-90632000D01*
X117637400Y-46240400D02*
X117637400Y-41960800D01*
X70637400Y-96740400D02*
X70637400Y-92460800D01*
X117637400Y-96740400D02*
X117637400Y-92460800D01*
X114157600Y-47599600D02*
X114487800Y-47269400D01*
X67157600Y-98099600D02*
X67487800Y-97769400D01*
X114157600Y-98099600D02*
X114487800Y-97769400D01*
X115895900Y-47269400D02*
X116608400Y-47269400D01*
X68895900Y-97769400D02*
X69608400Y-97769400D01*
X115895900Y-97769400D02*
X116608400Y-97769400D01*
X117637400Y-41960800D02*
X118221600Y-41376600D01*
X70637400Y-92460800D02*
X71221600Y-91876600D01*
X117637400Y-92460800D02*
X118221600Y-91876600D01*
X108886600Y-47599600D02*
X114157600Y-47599600D01*
X61886600Y-98099600D02*
X67157600Y-98099600D01*
X108886600Y-98099600D02*
X114157600Y-98099600D01*
X127645000Y-42189400D02*
X128330800Y-41503600D01*
X80645000Y-92689400D02*
X81330800Y-92003600D01*
X127645000Y-92689400D02*
X128330800Y-92003600D01*
X116608400Y-47269400D02*
X117637400Y-46240400D01*
X69608400Y-97769400D02*
X70637400Y-96740400D01*
X116608400Y-97769400D02*
X117637400Y-96740400D01*
X79019400Y-52916000D02*
X79019400Y-51816000D01*
X77985800Y-53949600D02*
X79019400Y-52916000D01*
X65989200Y-53949600D02*
X77985800Y-53949600D01*
X65024000Y-52984400D02*
X65989200Y-53949600D01*
X62357000Y-45720000D02*
X62357000Y-44670000D01*
X62357000Y-44670000D02*
X61959200Y-44272200D01*
X61959200Y-44272200D02*
X59918600Y-44272200D01*
X59918600Y-44272200D02*
X59969400Y-44323000D01*
X59969400Y-44323000D02*
X59410600Y-44323000D01*
X59410600Y-44323000D02*
X58724800Y-45008800D01*
X58724800Y-45008800D02*
X58724800Y-47675800D01*
X58724800Y-47675800D02*
X59944000Y-48895000D01*
X63982600Y-48895000D02*
X65024000Y-49936400D01*
X59944000Y-48895000D02*
X63982600Y-48895000D01*
X65024000Y-49936400D02*
X65024000Y-52984400D01*
X124985800Y-53949600D02*
X126019400Y-52916000D01*
X77985800Y-104449600D02*
X79019400Y-103416000D01*
X124985800Y-104449600D02*
X126019400Y-103416000D01*
X109357000Y-45720000D02*
X109357000Y-44670000D01*
X62357000Y-96220000D02*
X62357000Y-95170000D01*
X109357000Y-96220000D02*
X109357000Y-95170000D01*
X112989200Y-53949600D02*
X124985800Y-53949600D01*
X65989200Y-104449600D02*
X77985800Y-104449600D01*
X112989200Y-104449600D02*
X124985800Y-104449600D01*
X108959200Y-44272200D02*
X106918600Y-44272200D01*
X61959200Y-94772200D02*
X59918600Y-94772200D01*
X108959200Y-94772200D02*
X106918600Y-94772200D01*
X106969400Y-44323000D02*
X106410600Y-44323000D01*
X59969400Y-94823000D02*
X59410600Y-94823000D01*
X106969400Y-94823000D02*
X106410600Y-94823000D01*
X106410600Y-44323000D02*
X105724800Y-45008800D01*
X59410600Y-94823000D02*
X58724800Y-95508800D01*
X106410600Y-94823000D02*
X105724800Y-95508800D01*
X112024000Y-52984400D02*
X112989200Y-53949600D01*
X65024000Y-103484400D02*
X65989200Y-104449600D01*
X112024000Y-103484400D02*
X112989200Y-104449600D01*
X105724800Y-45008800D02*
X105724800Y-47675800D01*
X58724800Y-95508800D02*
X58724800Y-98175800D01*
X105724800Y-95508800D02*
X105724800Y-98175800D01*
X105724800Y-47675800D02*
X106944000Y-48895000D01*
X58724800Y-98175800D02*
X59944000Y-99395000D01*
X105724800Y-98175800D02*
X106944000Y-99395000D01*
X110982600Y-48895000D02*
X112024000Y-49936400D01*
X63982600Y-99395000D02*
X65024000Y-100436400D01*
X110982600Y-99395000D02*
X112024000Y-100436400D01*
X106918600Y-44272200D02*
X106969400Y-44323000D01*
X59918600Y-94772200D02*
X59969400Y-94823000D01*
X106918600Y-94772200D02*
X106969400Y-94823000D01*
X106944000Y-48895000D02*
X110982600Y-48895000D01*
X59944000Y-99395000D02*
X63982600Y-99395000D01*
X106944000Y-99395000D02*
X110982600Y-99395000D01*
X126019400Y-52916000D02*
X126019400Y-51816000D01*
X79019400Y-103416000D02*
X79019400Y-102316000D01*
X126019400Y-103416000D02*
X126019400Y-102316000D01*
X109357000Y-44670000D02*
X108959200Y-44272200D01*
X62357000Y-95170000D02*
X61959200Y-94772200D01*
X109357000Y-95170000D02*
X108959200Y-94772200D01*
X112024000Y-49936400D02*
X112024000Y-52984400D01*
X65024000Y-100436400D02*
X65024000Y-103484400D01*
X112024000Y-100436400D02*
X112024000Y-103484400D01*
M02*
